<svg width="20" height="21" viewBox="0 0 20 21" fill="none" xmlns="http://www.w3.org/2000/svg">
<path d="M1 16.9999H19C19.0929 16.9999 19.1839 17.0258 19.2629 17.0746C19.3419 17.1234 19.4057 17.1932 19.4472 17.2763C19.4887 17.3593 19.5063 17.4523 19.498 17.5448C19.4896 17.6373 19.4557 17.7256 19.4 17.7999L17.3 20.5999C17.2069 20.7241 17.0861 20.8249 16.9472 20.8943C16.8084 20.9637 16.6552 20.9999 16.5 20.9999H3.5C3.34476 20.9999 3.19164 20.9637 3.05279 20.8943C2.91393 20.8249 2.79315 20.7241 2.7 20.5999L0.6 17.7999C0.544287 17.7256 0.51036 17.6373 0.502021 17.5448C0.493682 17.4523 0.51126 17.3593 0.552787 17.2763C0.594313 17.1932 0.658147 17.1234 0.737135 17.0746C0.816123 17.0258 0.907144 16.9999 1 16.9999ZM13 1.42489V13.9999C13 14.2651 12.8946 14.5195 12.7071 14.707C12.5196 14.8945 12.2652 14.9999 12 14.9999H2.04C1.94592 14.9998 1.85378 14.9731 1.77417 14.9229C1.69457 14.8728 1.63074 14.8012 1.59 14.7164C1.54927 14.6316 1.53329 14.537 1.5439 14.4435C1.55452 14.35 1.59129 14.2614 1.65 14.1879L12.11 1.11289C12.1748 1.03218 12.2629 0.973551 12.3624 0.945081C12.4619 0.91661 12.5678 0.919704 12.6654 0.953935C12.7631 0.988166 12.8477 1.05185 12.9076 1.1362C12.9675 1.22055 12.9998 1.32142 13 1.42489Z" fill="#D8EA0D"/>
</svg>
