<svg width="24" height="24" viewBox="0 0 24 24" fill="none" xmlns="http://www.w3.org/2000/svg">
<path d="M12.6499 0.666667C12.6499 0.298477 12.3514 0 11.9832 0C11.615 0 11.3166 0.298477 11.3166 0.666667V2.41967C11.3166 2.78786 11.615 3.08633 11.9832 3.08633C12.3514 3.08633 12.6499 2.78786 12.6499 2.41967V0.666667Z" fill="white"/>
<path d="M0.666667 11.3166C0.298477 11.3166 0 11.615 0 11.9832C0 12.3514 0.298477 12.6499 0.666667 12.6499H2.41967C2.78786 12.6499 3.08633 12.3514 3.08633 11.9832C3.08633 11.615 2.78786 11.3166 2.41967 11.3166H0.666667Z" fill="white"/>
<path d="M21.5468 11.3166C21.1786 11.3166 20.8801 11.615 20.8801 11.9832C20.8801 12.3514 21.1786 12.6499 21.5468 12.6499H23.2998C23.668 12.6499 23.9664 12.3514 23.9664 11.9832C23.9664 11.615 23.668 11.3166 23.2998 11.3166H21.5468Z" fill="white"/>
<path d="M12.6499 21.5468C12.6499 21.1786 12.3514 20.8801 11.9832 20.8801C11.615 20.8801 11.3166 21.1786 11.3166 21.5468V23.2998C11.3166 23.668 11.615 23.9664 11.9832 23.9664C12.3514 23.9664 12.6499 23.668 12.6499 23.2998V21.5468Z" fill="white"/>
<path d="M4.45261 3.50981C4.19226 3.24946 3.77015 3.24946 3.5098 3.50981C3.24946 3.77015 3.24946 4.19226 3.5098 4.45261L4.74936 5.69217C5.00971 5.95252 5.43182 5.95252 5.69217 5.69217C5.95252 5.43182 5.95252 5.00971 5.69217 4.74936L4.45261 3.50981Z" fill="white"/>
<path d="M3.5098 19.5138C3.24946 19.7742 3.24946 20.1963 3.5098 20.4566C3.77015 20.717 4.19226 20.717 4.45261 20.4566L5.69217 19.2171C5.95252 18.9567 5.95252 18.5346 5.69217 18.2743C5.43182 18.0139 5.00971 18.0139 4.74936 18.2743L3.5098 19.5138Z" fill="white"/>
<path d="M18.2743 4.74936C18.0139 5.00971 18.0139 5.43182 18.2743 5.69217C18.5346 5.95252 18.9567 5.95252 19.2171 5.69217L20.4566 4.45261C20.717 4.19226 20.717 3.77015 20.4566 3.50981C20.1963 3.24946 19.7742 3.24946 19.5138 3.50981L18.2743 4.74936Z" fill="white"/>
<path d="M19.2171 18.2743C18.9567 18.0139 18.5346 18.0139 18.2743 18.2743C18.0139 18.5346 18.0139 18.9567 18.2743 19.2171L19.5138 20.4566C19.7742 20.717 20.1963 20.717 20.4566 20.4566C20.717 20.1963 20.717 19.7742 20.4566 19.5138L19.2171 18.2743Z" fill="white"/>
<path d="M17.3241 11.9823C17.3241 14.9278 14.9363 17.3156 11.9908 17.3156C9.04524 17.3156 6.65742 14.9278 6.65742 11.9823C6.65742 9.03677 9.04524 6.64896 11.9908 6.64896C14.9363 6.64896 17.3241 9.03677 17.3241 11.9823Z" fill="white"/>
</svg>
