<svg width="16" height="21" viewBox="0 0 16 21" fill="none" xmlns="http://www.w3.org/2000/svg">
<path d="M7 16H3.941C3.644 14.727 2.304 13.686 1.754 13C0.812189 11.8233 0.221946 10.4044 0.0512623 8.90694C-0.119421 7.40944 0.136398 5.89418 0.789252 4.53572C1.44211 3.17725 2.46543 2.03085 3.74135 1.22856C5.01728 0.426269 6.49388 0.00073532 8.00108 0.000976665C9.50828 0.00121801 10.9847 0.427224 12.2604 1.22992C13.5361 2.03262 14.559 3.17935 15.2115 4.53803C15.8639 5.8967 16.1192 7.41204 15.948 8.90949C15.7769 10.4069 15.1862 11.8256 14.244 13.002C13.694 13.687 12.356 14.728 12.059 16H9V11H7V16ZM12 18V19C12 19.5304 11.7893 20.0391 11.4142 20.4142C11.0391 20.7893 10.5304 21 10 21H6C5.46956 21 4.96086 20.7893 4.58578 20.4142C4.21071 20.0391 4 19.5304 4 19V18H12Z" fill="#9A99A2"/>
</svg>
