<svg width="40" height="32" viewBox="0 0 40 32" fill="none" xmlns="http://www.w3.org/2000/svg">
<path fill-rule="evenodd" clip-rule="evenodd" d="M11.1071 8.5497C11.77 9.34522 11.6625 10.5275 10.867 11.1905L5.0955 16L10.867 20.8096C11.6625 21.4726 11.77 22.6549 11.1071 23.4504C10.4441 24.2459 9.26183 24.3534 8.46631 23.6905L0.966311 17.4405C0.538825 17.0842 0.291656 16.5565 0.291656 16C0.291656 15.4436 0.538825 14.9159 0.966311 14.5596L8.46631 8.30963C9.26183 7.6467 10.4441 7.75418 11.1071 8.5497Z" fill="#02010F"/>
<path fill-rule="evenodd" clip-rule="evenodd" d="M28.2262 8.5497C28.8892 7.75418 30.0715 7.6467 30.867 8.30963L38.367 14.5596C38.7945 14.9159 39.0417 15.4436 39.0417 16C39.0417 16.5565 38.7945 17.0842 38.367 17.4405L30.867 23.6905C30.0715 24.3534 28.8892 24.2459 28.2262 23.4504C27.5633 22.6549 27.6708 21.4726 28.4663 20.8096L34.2378 16L28.4663 11.1905C27.6708 10.5275 27.5633 9.34522 28.2262 8.5497Z" fill="#02010F"/>
<path fill-rule="evenodd" clip-rule="evenodd" d="M25.3074 0.487909C26.2806 0.841796 26.7827 1.9176 26.4288 2.89079L16.4288 30.3908C16.0749 31.364 14.9991 31.866 14.0259 31.5121C13.0527 31.1583 12.5507 30.0824 12.9046 29.1093L22.9046 1.60925C23.2584 0.636066 24.3342 0.134023 25.3074 0.487909Z" fill="#02010F"/>
</svg>
