<svg width="24" height="19" viewBox="0 0 24 19" fill="none" xmlns="http://www.w3.org/2000/svg">
<path d="M4.873 9.67143e-09H19.127C19.2848 -2.19333e-05 19.4403 0.0372955 19.5809 0.108902C19.7216 0.180508 19.8432 0.284371 19.936 0.412L23.759 5.668C23.827 5.76152 23.8604 5.8757 23.8537 5.99112C23.8469 6.10653 23.8004 6.21603 23.722 6.301L12.367 18.602C12.3202 18.6526 12.2634 18.693 12.2003 18.7206C12.1371 18.7482 12.0689 18.7624 12 18.7624C11.9311 18.7624 11.8629 18.7482 11.7997 18.7206C11.7366 18.693 11.6798 18.6526 11.633 18.602L0.277998 6.302C0.199349 6.21697 0.152663 6.10726 0.145915 5.99163C0.139167 5.876 0.172775 5.76161 0.240998 5.668L4.064 0.412C4.15678 0.284371 4.27844 0.180508 4.41905 0.108902C4.55965 0.0372955 4.71521 -2.19333e-05 4.873 9.67143e-09Z" fill="#9A99A2"/>
</svg>
