<svg width="153" height="80" viewBox="0 0 153 80" fill="none" xmlns="http://www.w3.org/2000/svg">
<g opacity="0.9">
<path d="M139.805 62.9697C139.511 62.5435 139.365 62.3304 139.247 62.1477L122.249 38.9498C121.867 38.4323 121.838 38.0061 122.014 37.4276C122.197 36.8258 122.385 36.2252 122.571 35.6251C123.283 33.3418 123.992 31.0656 124.48 28.7513C125.018 26.3021 125.332 23.8143 125.646 21.334L125.646 21.3309L125.646 21.3281C125.726 20.6965 125.806 20.0654 125.889 19.4356C125.977 18.7658 126.095 17.8221 125.772 17.4872C125.528 17.2115 124.95 17.2479 124.403 17.2824C124.226 17.2936 124.051 17.3045 123.893 17.3045C122.689 17.3045 122.66 17.3045 122.543 18.5223C122.19 22.419 121.104 26.1331 119.665 29.7255C119.343 30.5507 118.973 31.3596 118.556 32.2719C118.404 32.6048 118.245 32.9515 118.08 33.3178C117.845 32.9829 117.757 32.8307 117.669 32.6785C117.258 32.1154 116.84 31.5522 116.422 30.9891C116.003 30.4258 115.585 29.8625 115.174 29.2992C113.765 27.3813 112.363 25.4634 110.961 23.5454C109.559 21.6275 108.157 19.7096 106.748 17.7916C106.425 17.335 106.073 17.0001 105.427 17.0001C102.55 17.0306 99.6433 17.0306 96.7663 17.0306C96.5608 17.0306 96.3259 17.061 96.003 17.1219C96.0928 17.255 96.1658 17.3765 96.2319 17.4863C96.3166 17.6273 96.3903 17.7499 96.4727 17.8525C97.4121 19.1159 98.3443 20.3869 99.2764 21.6579C100.208 22.929 101.141 24.2 102.08 25.4634C103.915 27.9598 105.75 30.4639 107.585 32.9679C109.42 35.4718 111.254 37.9757 113.089 40.472C113.412 40.9286 113.442 41.2635 113.089 41.6897C112.227 42.7552 111.374 43.8339 110.519 44.9139C108.787 47.1048 107.05 49.3008 105.221 51.4012C102.256 54.8108 98.9388 57.7943 95.5039 60.656C95.0635 61.0213 94.6305 61.379 94.1974 61.7367C93.7644 62.0944 93.3314 62.4521 92.891 62.8174C92.9057 62.8479 92.913 62.8783 92.9204 62.9087C92.9277 62.9391 92.9351 62.9697 92.9497 63.0001H93.713C94.8363 63.0001 95.9627 62.9967 97.0914 62.9934H97.0925C99.3559 62.9866 101.628 62.9798 103.9 63.0001C104.634 63.0306 105.163 62.787 105.662 62.2695C106.338 61.5528 107.022 60.8515 107.702 60.1539C108.38 59.4587 109.054 58.7672 109.713 58.0683C112.414 55.1762 114.704 51.9796 116.759 48.5699C117.011 48.099 117.285 47.6505 117.581 47.1665C117.629 47.0874 117.678 47.0073 117.728 46.926L117.807 47.0282L117.867 47.106C118.025 47.3099 118.141 47.4586 118.256 47.6262C119.562 49.3983 120.871 51.1704 122.182 52.9439C124.496 56.0757 126.813 59.2121 129.119 62.3608C129.442 62.8174 129.823 62.9697 130.352 62.9697H139.805Z" fill="#9593A2"/>
<path d="M41.9241 39.9846C41.3957 42.6637 40.1333 44.7643 38.3718 46.4691C35.9351 48.8741 33.0286 49.9701 29.6231 49.8483C25.8947 49.7265 22.9589 48.0826 20.6396 45.1296C18.3497 42.2375 17.6451 38.8582 18.1148 35.1441C18.8194 29.6034 23.9864 24.7629 29.3589 24.6107C32.7351 24.5194 35.7296 25.4327 38.225 27.8682C38.5773 28.203 38.8415 28.203 39.1645 27.8377C39.4997 27.4554 39.854 27.0929 40.2111 26.7275C40.4795 26.453 40.7495 26.1767 41.014 25.8893C41.282 25.6019 41.5085 25.3755 41.6924 25.1917C42.0883 24.796 42.2869 24.5975 42.2768 24.4117C42.2667 24.2245 42.045 24.0502 41.6002 23.7004C41.3877 23.5332 41.1242 23.326 40.8085 23.0581C37.2562 20.0442 33.1167 18.8569 28.5662 19.2222C23.5754 19.5876 19.6121 22.023 16.5001 25.9502C13.5937 29.6339 12.4487 33.9264 12.7717 38.706C13.0652 43.303 14.8854 47.1084 17.9387 50.2745C21.9607 54.3539 26.8341 55.9674 32.3828 55.2064C38.2837 54.3844 42.5406 51.0356 45.4177 45.7689C47.2379 42.481 47.5902 38.8887 47.4434 35.1746C47.4434 34.6266 47.1792 34.5048 46.7095 34.5048H30.7974C30.2103 34.5048 29.9754 34.7484 29.9754 35.3572V39.0105C29.9754 39.9238 30.0341 39.9846 30.9442 39.9846H41.9241Z" fill="#9593A2"/>
<path fill-rule="evenodd" clip-rule="evenodd" d="M73.8364 50.7311C73.4705 51.0182 73.1246 51.3019 72.7885 51.5775C72.127 52.12 71.5038 52.6311 70.8419 53.0752C68.4052 54.7192 65.7042 55.4803 62.8272 55.4194C57.9244 55.328 53.9904 53.2883 51.2308 48.9349C47.6785 43.3638 48.706 35.4485 53.4326 31.0951C57.4253 27.381 62.0051 26.285 67.1134 28.203C71.1648 29.6947 73.807 32.7086 75.3337 36.8184C75.3995 36.9891 75.4571 37.1598 75.5142 37.3289C75.6099 37.6122 75.7041 37.8911 75.8327 38.158C76.097 38.7059 75.9795 38.9495 75.4217 39.1626C73.8599 39.741 72.3098 40.3439 70.7566 40.9479C69.8574 41.2977 68.9571 41.6478 68.0529 41.9938C66.1465 42.7237 64.2474 43.4537 62.3484 44.1836L62.3432 44.1856C60.4421 44.9163 58.5411 45.647 56.6326 46.3777C56.5048 46.4307 56.377 46.5068 56.2104 46.606L56.1335 46.6517C57.4253 48.4174 59.0693 49.4525 61.095 49.7873C64.1189 50.3049 66.8786 49.6047 69.2272 47.5345C69.6089 47.1997 69.9024 47.1692 70.2841 47.5345C71.1752 48.3638 72.0663 49.1562 73.0127 49.9978C73.2823 50.2376 73.5565 50.4813 73.8364 50.7311ZM54.4895 41.4154C57.6993 40.1774 60.883 38.9664 64.0667 37.7554C65.6586 37.1499 67.2504 36.5445 68.8455 35.9356C67.3776 33.5914 63.2382 31.8866 59.5097 33.4697C56.4271 34.7483 54.2253 38.158 54.4895 41.4154Z" fill="#9593A2"/>
<path fill-rule="evenodd" clip-rule="evenodd" d="M90.3943 27.3201C83.0255 27.3201 77.0658 33.6219 77.0658 41.385C76.919 49.2089 83.4072 55.4194 90.5998 55.3889C97.7632 55.3585 104.105 49.2698 104.016 41.1719C103.928 33.4697 97.91 27.2897 90.3943 27.3201ZM90.8054 32.7999C95.2091 32.9217 98.732 36.6662 98.7027 41.3545C98.6733 46.2255 95.0916 49.8787 90.3943 49.8482C85.8732 49.8178 82.2328 46.0428 82.2915 41.3545C82.3209 36.4227 86.1374 32.6477 90.8054 32.7999Z" fill="#9593A2"/>
</g>
</svg>
