<svg width="230" height="200" viewBox="0 0 230 200" fill="none" xmlns="http://www.w3.org/2000/svg">
<path d="M65 0H165V108H65V0Z" fill="#C4EBEA"/>
<rect x="71" y="7" width="71" height="10" fill="#7DC6C4"/>
<rect x="71" y="21" width="87" height="6" fill="#7DC6C4"/>
<rect x="71" y="62" width="67" height="6" fill="#7DC6C4"/>
<rect x="71" y="72" width="87" height="3" fill="#7DC6C4"/>
<rect x="71" y="78" width="87" height="3" fill="#7DC6C4"/>
<rect x="71" y="41" width="28" height="6" fill="#7DC6C4"/>
<rect x="71" y="91" width="23" height="6" fill="#7DC6C4"/>
<rect x="71" y="50" width="22" height="3" fill="#7DC6C4"/>
<rect x="71" y="100" width="17" height="3" fill="#7DC6C4"/>
<rect x="101" y="41" width="28" height="6" fill="#7DC6C4"/>
<rect x="101" y="50" width="22" height="3" fill="#7DC6C4"/>
<rect x="131" y="41" width="28" height="6" fill="#7DC6C4"/>
<rect x="131" y="50" width="22" height="3" fill="#7DC6C4"/>
<path d="M4.75084 141.32V158H2.01484V141.32H4.75084ZM15.015 144.56C16.055 144.56 16.983 144.776 17.799 145.208C18.631 145.64 19.279 146.28 19.743 147.128C20.207 147.976 20.439 149 20.439 150.2V158H17.727V150.608C17.727 149.424 17.431 148.52 16.839 147.896C16.247 147.256 15.439 146.936 14.415 146.936C13.391 146.936 12.575 147.256 11.967 147.896C11.375 148.52 11.079 149.424 11.079 150.608V158H8.34297V144.776H11.079V146.288C11.527 145.744 12.095 145.32 12.783 145.016C13.487 144.712 14.231 144.56 15.015 144.56ZM29.0409 155.552L32.7849 144.776H35.6889L30.6489 158H27.3849L22.3689 144.776H25.2969L29.0409 155.552ZM43.493 158.216C42.245 158.216 41.117 157.936 40.109 157.376C39.101 156.8 38.309 156 37.733 154.976C37.157 153.936 36.869 152.736 36.869 151.376C36.869 150.032 37.165 148.84 37.757 147.8C38.349 146.76 39.157 145.96 40.181 145.4C41.205 144.84 42.349 144.56 43.613 144.56C44.877 144.56 46.021 144.84 47.045 145.4C48.069 145.96 48.877 146.76 49.469 147.8C50.061 148.84 50.357 150.032 50.357 151.376C50.357 152.72 50.053 153.912 49.445 154.952C48.837 155.992 48.005 156.8 46.949 157.376C45.909 157.936 44.757 158.216 43.493 158.216ZM43.493 155.84C44.197 155.84 44.853 155.672 45.461 155.336C46.085 155 46.589 154.496 46.973 153.824C47.357 153.152 47.549 152.336 47.549 151.376C47.549 150.416 47.365 149.608 46.997 148.952C46.629 148.28 46.141 147.776 45.533 147.44C44.925 147.104 44.269 146.936 43.565 146.936C42.861 146.936 42.205 147.104 41.597 147.44C41.005 147.776 40.533 148.28 40.181 148.952C39.829 149.608 39.653 150.416 39.653 151.376C39.653 152.8 40.013 153.904 40.733 154.688C41.469 155.456 42.389 155.84 43.493 155.84ZM54.4537 143.024C53.9577 143.024 53.5417 142.856 53.2057 142.52C52.8697 142.184 52.7017 141.768 52.7017 141.272C52.7017 140.776 52.8697 140.36 53.2057 140.024C53.5417 139.688 53.9577 139.52 54.4537 139.52C54.9337 139.52 55.3417 139.688 55.6777 140.024C56.0137 140.36 56.1817 140.776 56.1817 141.272C56.1817 141.768 56.0137 142.184 55.6777 142.52C55.3417 142.856 54.9337 143.024 54.4537 143.024ZM55.7977 144.776V158H53.0617V144.776H55.7977ZM58.4778 151.376C58.4778 150.016 58.7498 148.824 59.2938 147.8C59.8538 146.76 60.6218 145.96 61.5978 145.4C62.5738 144.84 63.6938 144.56 64.9578 144.56C66.5578 144.56 67.8778 144.944 68.9178 145.712C69.9738 146.464 70.6858 147.544 71.0538 148.952H68.1018C67.8618 148.296 67.4778 147.784 66.9498 147.416C66.4218 147.048 65.7578 146.864 64.9578 146.864C63.8378 146.864 62.9418 147.264 62.2698 148.064C61.6138 148.848 61.2858 149.952 61.2858 151.376C61.2858 152.8 61.6138 153.912 62.2698 154.712C62.9418 155.512 63.8378 155.912 64.9578 155.912C66.5418 155.912 67.5898 155.216 68.1018 153.824H71.0538C70.6698 155.168 69.9498 156.24 68.8938 157.04C67.8378 157.824 66.5258 158.216 64.9578 158.216C63.6938 158.216 62.5738 157.936 61.5978 157.376C60.6218 156.8 59.8538 156 59.2938 154.976C58.7498 153.936 58.4778 152.736 58.4778 151.376ZM85.9005 151.064C85.9005 151.56 85.8685 152.008 85.8045 152.408H75.7005C75.7805 153.464 76.1725 154.312 76.8765 154.952C77.5805 155.592 78.4445 155.912 79.4685 155.912C80.9405 155.912 81.9805 155.296 82.5885 154.064H85.5405C85.1405 155.28 84.4125 156.28 83.3565 157.064C82.3165 157.832 81.0205 158.216 79.4685 158.216C78.2045 158.216 77.0685 157.936 76.0605 157.376C75.0685 156.8 74.2845 156 73.7085 154.976C73.1485 153.936 72.8685 152.736 72.8685 151.376C72.8685 150.016 73.1405 148.824 73.6845 147.8C74.2445 146.76 75.0205 145.96 76.0125 145.4C77.0205 144.84 78.1725 144.56 79.4685 144.56C80.7165 144.56 81.8285 144.832 82.8045 145.376C83.7805 145.92 84.5405 146.688 85.0845 147.68C85.6285 148.656 85.9005 149.784 85.9005 151.064ZM83.0445 150.2C83.0285 149.192 82.6685 148.384 81.9645 147.776C81.2605 147.168 80.3885 146.864 79.3485 146.864C78.4045 146.864 77.5965 147.168 76.9245 147.776C76.2525 148.368 75.8525 149.176 75.7245 150.2H83.0445ZM112.587 144.776L108.483 158H105.603L102.939 148.232L100.275 158H97.3953L93.2673 144.776H96.0513L98.8113 155.408L101.619 144.776H104.475L107.163 155.36L109.899 144.776H112.587ZM116.024 143.024C115.528 143.024 115.112 142.856 114.776 142.52C114.44 142.184 114.272 141.768 114.272 141.272C114.272 140.776 114.44 140.36 114.776 140.024C115.112 139.688 115.528 139.52 116.024 139.52C116.504 139.52 116.912 139.688 117.248 140.024C117.584 140.36 117.752 140.776 117.752 141.272C117.752 141.768 117.584 142.184 117.248 142.52C116.912 142.856 116.504 143.024 116.024 143.024ZM117.368 144.776V158H114.632V144.776H117.368ZM123.696 140.24V158H120.96V140.24H123.696ZM130.024 140.24V158H127.288V140.24H130.024ZM142.587 146.744C143.051 146.104 143.683 145.584 144.483 145.184C145.299 144.768 146.203 144.56 147.195 144.56C148.363 144.56 149.419 144.84 150.363 145.4C151.307 145.96 152.051 146.76 152.595 147.8C153.139 148.824 153.411 150 153.411 151.328C153.411 152.656 153.139 153.848 152.595 154.904C152.051 155.944 151.299 156.76 150.339 157.352C149.395 157.928 148.347 158.216 147.195 158.216C146.171 158.216 145.259 158.016 144.459 157.616C143.675 157.216 143.051 156.704 142.587 156.08V158H139.851V140.24H142.587V146.744ZM150.627 151.328C150.627 150.416 150.435 149.632 150.051 148.976C149.683 148.304 149.187 147.8 148.563 147.464C147.955 147.112 147.299 146.936 146.595 146.936C145.907 146.936 145.251 147.112 144.627 147.464C144.019 147.816 143.523 148.328 143.139 149C142.771 149.672 142.587 150.464 142.587 151.376C142.587 152.288 142.771 153.088 143.139 153.776C143.523 154.448 144.019 154.96 144.627 155.312C145.251 155.664 145.907 155.84 146.595 155.84C147.299 155.84 147.955 155.664 148.563 155.312C149.187 154.944 149.683 154.416 150.051 153.728C150.435 153.04 150.627 152.24 150.627 151.328ZM168.236 151.064C168.236 151.56 168.204 152.008 168.14 152.408H158.036C158.116 153.464 158.508 154.312 159.212 154.952C159.916 155.592 160.78 155.912 161.804 155.912C163.276 155.912 164.316 155.296 164.924 154.064H167.876C167.476 155.28 166.748 156.28 165.692 157.064C164.652 157.832 163.356 158.216 161.804 158.216C160.54 158.216 159.404 157.936 158.396 157.376C157.404 156.8 156.62 156 156.044 154.976C155.484 153.936 155.204 152.736 155.204 151.376C155.204 150.016 155.476 148.824 156.02 147.8C156.58 146.76 157.356 145.96 158.348 145.4C159.356 144.84 160.508 144.56 161.804 144.56C163.052 144.56 164.164 144.832 165.14 145.376C166.116 145.92 166.876 146.688 167.42 147.68C167.964 148.656 168.236 149.784 168.236 151.064ZM165.38 150.2C165.364 149.192 165.004 148.384 164.3 147.776C163.596 147.168 162.724 146.864 161.684 146.864C160.74 146.864 159.932 147.168 159.26 147.776C158.588 148.368 158.188 149.176 158.06 150.2H165.38ZM184.003 144.56C185.011 144.56 185.907 144.776 186.691 145.208C187.491 145.64 188.115 146.28 188.563 147.128C189.027 147.976 189.259 149 189.259 150.2V158H186.547V150.608C186.547 149.424 186.251 148.52 185.659 147.896C185.067 147.256 184.259 146.936 183.235 146.936C182.211 146.936 181.395 147.256 180.787 147.896C180.195 148.52 179.899 149.424 179.899 150.608V158H177.163V140.24H179.899V146.312C180.363 145.752 180.947 145.32 181.651 145.016C182.371 144.712 183.155 144.56 184.003 144.56ZM204.869 151.064C204.869 151.56 204.837 152.008 204.773 152.408H194.669C194.749 153.464 195.141 154.312 195.845 154.952C196.549 155.592 197.413 155.912 198.437 155.912C199.909 155.912 200.949 155.296 201.557 154.064H204.509C204.109 155.28 203.381 156.28 202.325 157.064C201.285 157.832 199.989 158.216 198.437 158.216C197.173 158.216 196.037 157.936 195.029 157.376C194.037 156.8 193.253 156 192.677 154.976C192.117 153.936 191.837 152.736 191.837 151.376C191.837 150.016 192.109 148.824 192.653 147.8C193.213 146.76 193.989 145.96 194.981 145.4C195.989 144.84 197.141 144.56 198.437 144.56C199.685 144.56 200.797 144.832 201.773 145.376C202.749 145.92 203.509 146.688 204.053 147.68C204.597 148.656 204.869 149.784 204.869 151.064ZM202.013 150.2C201.997 149.192 201.637 148.384 200.933 147.776C200.229 147.168 199.357 146.864 198.317 146.864C197.373 146.864 196.565 147.168 195.893 147.776C195.221 148.368 194.821 149.176 194.693 150.2H202.013ZM210.298 146.696C210.698 146.024 211.226 145.504 211.882 145.136C212.554 144.752 213.346 144.56 214.258 144.56V147.392H213.562C212.49 147.392 211.674 147.664 211.114 148.208C210.57 148.752 210.298 149.696 210.298 151.04V158H207.562V144.776H210.298V146.696ZM228.893 151.064C228.893 151.56 228.861 152.008 228.797 152.408H218.693C218.773 153.464 219.165 154.312 219.869 154.952C220.573 155.592 221.437 155.912 222.461 155.912C223.933 155.912 224.973 155.296 225.581 154.064H228.533C228.133 155.28 227.405 156.28 226.349 157.064C225.309 157.832 224.013 158.216 222.461 158.216C221.197 158.216 220.061 157.936 219.053 157.376C218.061 156.8 217.277 156 216.701 154.976C216.141 153.936 215.861 152.736 215.861 151.376C215.861 150.016 216.133 148.824 216.677 147.8C217.237 146.76 218.013 145.96 219.005 145.4C220.013 144.84 221.165 144.56 222.461 144.56C223.709 144.56 224.821 144.832 225.797 145.376C226.773 145.92 227.533 146.688 228.077 147.68C228.621 148.656 228.893 149.784 228.893 151.064ZM226.037 150.2C226.021 149.192 225.661 148.384 224.957 147.776C224.253 147.168 223.381 146.864 222.341 146.864C221.397 146.864 220.589 147.168 219.917 147.776C219.245 148.368 218.845 149.176 218.717 150.2H226.037Z" fill="#46454F"/>
<path d="M60.2271 188.816H64.1311V190H58.7711V178.848H60.2271V188.816ZM69.5013 190.144C68.68 190.144 67.9333 189.957 67.2613 189.584C66.6 189.211 66.0773 188.683 65.6933 188C65.32 187.307 65.1333 186.507 65.1333 185.6C65.1333 184.704 65.3253 183.915 65.7093 183.232C66.104 182.539 66.6373 182.011 67.3093 181.648C67.9813 181.275 68.7333 181.088 69.5653 181.088C70.3973 181.088 71.1493 181.275 71.8213 181.648C72.4933 182.011 73.0213 182.533 73.4053 183.216C73.8 183.899 73.9973 184.693 73.9973 185.6C73.9973 186.507 73.7946 187.307 73.3893 188C72.9946 188.683 72.456 189.211 71.7733 189.584C71.0906 189.957 70.3333 190.144 69.5013 190.144ZM69.5013 188.864C70.024 188.864 70.5146 188.741 70.9733 188.496C71.432 188.251 71.8 187.883 72.0773 187.392C72.3653 186.901 72.5093 186.304 72.5093 185.6C72.5093 184.896 72.3706 184.299 72.0933 183.808C71.816 183.317 71.4533 182.955 71.0053 182.72C70.5573 182.475 70.072 182.352 69.5493 182.352C69.016 182.352 68.5253 182.475 68.0773 182.72C67.64 182.955 67.288 183.317 67.0213 183.808C66.7546 184.299 66.6213 184.896 66.6213 185.6C66.6213 186.315 66.7493 186.917 67.0053 187.408C67.272 187.899 67.624 188.267 68.0613 188.512C68.4986 188.747 68.9786 188.864 69.5013 188.864ZM75.3677 185.584C75.3677 184.688 75.549 183.904 75.9117 183.232C76.2744 182.549 76.7704 182.021 77.3997 181.648C78.0397 181.275 78.749 181.088 79.5277 181.088C80.2957 181.088 80.9624 181.253 81.5277 181.584C82.093 181.915 82.5144 182.331 82.7917 182.832V181.232H84.2637V190H82.7917V188.368C82.5037 188.88 82.0717 189.307 81.4957 189.648C80.9304 189.979 80.269 190.144 79.5117 190.144C78.733 190.144 78.029 189.952 77.3997 189.568C76.7704 189.184 76.2744 188.645 75.9117 187.952C75.549 187.259 75.3677 186.469 75.3677 185.584ZM82.7917 185.6C82.7917 184.939 82.6584 184.363 82.3917 183.872C82.125 183.381 81.7624 183.008 81.3037 182.752C80.8557 182.485 80.3597 182.352 79.8157 182.352C79.2717 182.352 78.7757 182.48 78.3277 182.736C77.8797 182.992 77.5224 183.365 77.2557 183.856C76.989 184.347 76.8557 184.923 76.8557 185.584C76.8557 186.256 76.989 186.843 77.2557 187.344C77.5224 187.835 77.8797 188.213 78.3277 188.48C78.7757 188.736 79.2717 188.864 79.8157 188.864C80.3597 188.864 80.8557 188.736 81.3037 188.48C81.7624 188.213 82.125 187.835 82.3917 187.344C82.6584 186.843 82.7917 186.261 82.7917 185.6ZM86.1802 185.584C86.1802 184.688 86.3615 183.904 86.7242 183.232C87.0869 182.549 87.5829 182.021 88.2122 181.648C88.8522 181.275 89.5669 181.088 90.3562 181.088C91.0389 181.088 91.6735 181.248 92.2602 181.568C92.8469 181.877 93.2949 182.288 93.6042 182.8V178.16H95.0762V190H93.6042V188.352C93.3162 188.875 92.8895 189.307 92.3242 189.648C91.7589 189.979 91.0975 190.144 90.3402 190.144C89.5615 190.144 88.8522 189.952 88.2122 189.568C87.5829 189.184 87.0869 188.645 86.7242 187.952C86.3615 187.259 86.1802 186.469 86.1802 185.584ZM93.6042 185.6C93.6042 184.939 93.4709 184.363 93.2042 183.872C92.9375 183.381 92.5749 183.008 92.1162 182.752C91.6682 182.485 91.1722 182.352 90.6282 182.352C90.0842 182.352 89.5882 182.48 89.1402 182.736C88.6922 182.992 88.3349 183.365 88.0682 183.856C87.8015 184.347 87.6682 184.923 87.6682 185.584C87.6682 186.256 87.8015 186.843 88.0682 187.344C88.3349 187.835 88.6922 188.213 89.1402 188.48C89.5882 188.736 90.0842 188.864 90.6282 188.864C91.1722 188.864 91.6682 188.736 92.1162 188.48C92.5749 188.213 92.9375 187.835 93.2042 187.344C93.4709 186.843 93.6042 186.261 93.6042 185.6ZM101.258 185.584C101.258 184.688 101.44 183.904 101.802 183.232C102.165 182.549 102.661 182.021 103.29 181.648C103.93 181.275 104.645 181.088 105.434 181.088C106.117 181.088 106.752 181.248 107.338 181.568C107.925 181.877 108.373 182.288 108.682 182.8V178.16H110.154V190H108.682V188.352C108.394 188.875 107.968 189.307 107.402 189.648C106.837 189.979 106.176 190.144 105.418 190.144C104.64 190.144 103.93 189.952 103.29 189.568C102.661 189.184 102.165 188.645 101.802 187.952C101.44 187.259 101.258 186.469 101.258 185.584ZM108.682 185.6C108.682 184.939 108.549 184.363 108.282 183.872C108.016 183.381 107.653 183.008 107.194 182.752C106.746 182.485 106.25 182.352 105.706 182.352C105.162 182.352 104.666 182.48 104.218 182.736C103.77 182.992 103.413 183.365 103.146 183.856C102.88 184.347 102.746 184.923 102.746 185.584C102.746 186.256 102.88 186.843 103.146 187.344C103.413 187.835 103.77 188.213 104.218 188.48C104.666 188.736 105.162 188.864 105.706 188.864C106.25 188.864 106.746 188.736 107.194 188.48C107.653 188.213 108.016 187.835 108.282 187.344C108.549 186.843 108.682 186.261 108.682 185.6ZM112.071 185.584C112.071 184.688 112.252 183.904 112.615 183.232C112.977 182.549 113.473 182.021 114.103 181.648C114.743 181.275 115.452 181.088 116.231 181.088C116.999 181.088 117.665 181.253 118.231 181.584C118.796 181.915 119.217 182.331 119.495 182.832V181.232H120.967V190H119.495V188.368C119.207 188.88 118.775 189.307 118.199 189.648C117.633 189.979 116.972 190.144 116.215 190.144C115.436 190.144 114.732 189.952 114.103 189.568C113.473 189.184 112.977 188.645 112.615 187.952C112.252 187.259 112.071 186.469 112.071 185.584ZM119.495 185.6C119.495 184.939 119.361 184.363 119.095 183.872C118.828 183.381 118.465 183.008 118.007 182.752C117.559 182.485 117.063 182.352 116.519 182.352C115.975 182.352 115.479 182.48 115.031 182.736C114.583 182.992 114.225 183.365 113.959 183.856C113.692 184.347 113.559 184.923 113.559 185.584C113.559 186.256 113.692 186.843 113.959 187.344C114.225 187.835 114.583 188.213 115.031 188.48C115.479 188.736 115.975 188.864 116.519 188.864C117.063 188.864 117.559 188.736 118.007 188.48C118.465 188.213 118.828 187.835 119.095 187.344C119.361 186.843 119.495 186.261 119.495 185.6ZM125.203 182.432V187.6C125.203 188.027 125.294 188.331 125.475 188.512C125.657 188.683 125.971 188.768 126.419 188.768H127.491V190H126.179C125.369 190 124.761 189.813 124.355 189.44C123.95 189.067 123.747 188.453 123.747 187.6V182.432H122.611V181.232H123.747V179.024H125.203V181.232H127.491V182.432H125.203ZM128.711 185.584C128.711 184.688 128.893 183.904 129.255 183.232C129.618 182.549 130.114 182.021 130.743 181.648C131.383 181.275 132.093 181.088 132.871 181.088C133.639 181.088 134.306 181.253 134.871 181.584C135.437 181.915 135.858 182.331 136.135 182.832V181.232H137.607V190H136.135V188.368C135.847 188.88 135.415 189.307 134.839 189.648C134.274 189.979 133.613 190.144 132.855 190.144C132.077 190.144 131.373 189.952 130.743 189.568C130.114 189.184 129.618 188.645 129.255 187.952C128.893 187.259 128.711 186.469 128.711 185.584ZM136.135 185.6C136.135 184.939 136.002 184.363 135.735 183.872C135.469 183.381 135.106 183.008 134.647 182.752C134.199 182.485 133.703 182.352 133.159 182.352C132.615 182.352 132.119 182.48 131.671 182.736C131.223 182.992 130.866 183.365 130.599 183.856C130.333 184.347 130.199 184.923 130.199 185.584C130.199 186.256 130.333 186.843 130.599 187.344C130.866 187.835 131.223 188.213 131.671 188.48C132.119 188.736 132.615 188.864 133.159 188.864C133.703 188.864 134.199 188.736 134.647 188.48C135.106 188.213 135.469 187.835 135.735 187.344C136.002 186.843 136.135 186.261 136.135 185.6ZM147.902 182.432H146.062V190H144.606V182.432H143.47V181.232H144.606V180.608C144.606 179.627 144.856 178.912 145.358 178.464C145.87 178.005 146.686 177.776 147.806 177.776V178.992C147.166 178.992 146.712 179.12 146.446 179.376C146.19 179.621 146.062 180.032 146.062 180.608V181.232H147.902V182.432ZM150.351 179.808C150.074 179.808 149.839 179.712 149.647 179.52C149.455 179.328 149.359 179.093 149.359 178.816C149.359 178.539 149.455 178.304 149.647 178.112C149.839 177.92 150.074 177.824 150.351 177.824C150.618 177.824 150.842 177.92 151.023 178.112C151.215 178.304 151.311 178.539 151.311 178.816C151.311 179.093 151.215 179.328 151.023 179.52C150.842 179.712 150.618 179.808 150.351 179.808ZM151.055 181.232V190H149.599V181.232H151.055ZM154.993 182.656C155.249 182.155 155.611 181.765 156.081 181.488C156.561 181.211 157.142 181.072 157.825 181.072V182.576H157.441C155.809 182.576 154.993 183.461 154.993 185.232V190H153.537V181.232H154.993V182.656ZM162.609 190.144C161.937 190.144 161.335 190.032 160.801 189.808C160.268 189.573 159.847 189.253 159.537 188.848C159.228 188.432 159.057 187.957 159.025 187.424H160.529C160.572 187.861 160.775 188.219 161.137 188.496C161.511 188.773 161.996 188.912 162.593 188.912C163.148 188.912 163.585 188.789 163.905 188.544C164.225 188.299 164.385 187.989 164.385 187.616C164.385 187.232 164.215 186.949 163.873 186.768C163.532 186.576 163.004 186.389 162.289 186.208C161.639 186.037 161.105 185.867 160.689 185.696C160.284 185.515 159.932 185.253 159.633 184.912C159.345 184.56 159.201 184.101 159.201 183.536C159.201 183.088 159.335 182.677 159.601 182.304C159.868 181.931 160.247 181.637 160.737 181.424C161.228 181.2 161.788 181.088 162.417 181.088C163.388 181.088 164.172 181.333 164.769 181.824C165.367 182.315 165.687 182.987 165.729 183.84H164.273C164.241 183.381 164.055 183.013 163.713 182.736C163.383 182.459 162.935 182.32 162.369 182.32C161.847 182.32 161.431 182.432 161.121 182.656C160.812 182.88 160.657 183.173 160.657 183.536C160.657 183.824 160.748 184.064 160.929 184.256C161.121 184.437 161.356 184.587 161.633 184.704C161.921 184.811 162.316 184.933 162.817 185.072C163.447 185.243 163.959 185.413 164.353 185.584C164.748 185.744 165.084 185.989 165.361 186.32C165.649 186.651 165.799 187.083 165.809 187.616C165.809 188.096 165.676 188.528 165.409 188.912C165.143 189.296 164.764 189.6 164.273 189.824C163.793 190.037 163.239 190.144 162.609 190.144ZM169.641 182.432V187.6C169.641 188.027 169.731 188.331 169.913 188.512C170.094 188.683 170.409 188.768 170.857 188.768H171.929V190H170.617C169.806 190 169.198 189.813 168.793 189.44C168.387 189.067 168.185 188.453 168.185 187.6V182.432H167.049V181.232H168.185V179.024H169.641V181.232H171.929V182.432H169.641Z" fill="#46454F"/>
</svg>
