<svg width="204" height="200" viewBox="0 0 204 200" fill="none" xmlns="http://www.w3.org/2000/svg">
<rect x="52" y="76" width="100" height="32" fill="#C4EBEA"/>
<rect x="57" y="83" width="75.8333" height="10" fill="#7DC6C4"/>
<rect x="57" y="97" width="89.1667" height="6" fill="#7DC6C4"/>
<rect x="52" width="100" height="32" fill="#C4EBEA"/>
<rect x="57" y="7" width="75.8333" height="10" fill="#7DC6C4"/>
<rect x="57" y="21" width="30.8333" height="6" fill="#7DC6C4"/>
<rect x="52" y="38" width="100" height="32" fill="#C4EBEA"/>
<rect x="57" y="45" width="42.5" height="10" fill="#7DC6C4"/>
<rect x="57" y="59" width="55.8333" height="6" fill="#7DC6C4"/>
<path d="M4.7235 141.32V158H1.9875V141.32H4.7235ZM14.9876 144.56C16.0276 144.56 16.9556 144.776 17.7716 145.208C18.6036 145.64 19.2516 146.28 19.7156 147.128C20.1796 147.976 20.4116 149 20.4116 150.2V158H17.6996V150.608C17.6996 149.424 17.4036 148.52 16.8116 147.896C16.2196 147.256 15.4116 146.936 14.3876 146.936C13.3636 146.936 12.5476 147.256 11.9396 147.896C11.3476 148.52 11.0516 149.424 11.0516 150.608V158H8.31563V144.776H11.0516V146.288C11.4996 145.744 12.0676 145.32 12.7556 145.016C13.4596 144.712 14.2036 144.56 14.9876 144.56ZM29.0136 155.552L32.7576 144.776H35.6616L30.6216 158H27.3576L22.3416 144.776H25.2696L29.0136 155.552ZM43.4657 158.216C42.2177 158.216 41.0897 157.936 40.0817 157.376C39.0737 156.8 38.2817 156 37.7057 154.976C37.1297 153.936 36.8417 152.736 36.8417 151.376C36.8417 150.032 37.1377 148.84 37.7297 147.8C38.3217 146.76 39.1297 145.96 40.1537 145.4C41.1777 144.84 42.3217 144.56 43.5857 144.56C44.8497 144.56 45.9937 144.84 47.0177 145.4C48.0417 145.96 48.8497 146.76 49.4417 147.8C50.0337 148.84 50.3297 150.032 50.3297 151.376C50.3297 152.72 50.0257 153.912 49.4177 154.952C48.8097 155.992 47.9777 156.8 46.9217 157.376C45.8817 157.936 44.7297 158.216 43.4657 158.216ZM43.4657 155.84C44.1697 155.84 44.8257 155.672 45.4337 155.336C46.0577 155 46.5617 154.496 46.9457 153.824C47.3297 153.152 47.5217 152.336 47.5217 151.376C47.5217 150.416 47.3377 149.608 46.9697 148.952C46.6017 148.28 46.1137 147.776 45.5057 147.44C44.8977 147.104 44.2417 146.936 43.5377 146.936C42.8337 146.936 42.1777 147.104 41.5697 147.44C40.9777 147.776 40.5057 148.28 40.1537 148.952C39.8017 149.608 39.6257 150.416 39.6257 151.376C39.6257 152.8 39.9857 153.904 40.7057 154.688C41.4417 155.456 42.3617 155.84 43.4657 155.84ZM54.4264 143.024C53.9304 143.024 53.5144 142.856 53.1784 142.52C52.8424 142.184 52.6744 141.768 52.6744 141.272C52.6744 140.776 52.8424 140.36 53.1784 140.024C53.5144 139.688 53.9304 139.52 54.4264 139.52C54.9064 139.52 55.3144 139.688 55.6504 140.024C55.9864 140.36 56.1544 140.776 56.1544 141.272C56.1544 141.768 55.9864 142.184 55.6504 142.52C55.3144 142.856 54.9064 143.024 54.4264 143.024ZM55.7704 144.776V158H53.0344V144.776H55.7704ZM58.4505 151.376C58.4505 150.016 58.7225 148.824 59.2665 147.8C59.8265 146.76 60.5945 145.96 61.5705 145.4C62.5465 144.84 63.6665 144.56 64.9305 144.56C66.5305 144.56 67.8505 144.944 68.8905 145.712C69.9465 146.464 70.6585 147.544 71.0265 148.952H68.0745C67.8345 148.296 67.4505 147.784 66.9225 147.416C66.3945 147.048 65.7305 146.864 64.9305 146.864C63.8105 146.864 62.9145 147.264 62.2425 148.064C61.5865 148.848 61.2585 149.952 61.2585 151.376C61.2585 152.8 61.5865 153.912 62.2425 154.712C62.9145 155.512 63.8105 155.912 64.9305 155.912C66.5145 155.912 67.5625 155.216 68.0745 153.824H71.0265C70.6425 155.168 69.9225 156.24 68.8665 157.04C67.8105 157.824 66.4985 158.216 64.9305 158.216C63.6665 158.216 62.5465 157.936 61.5705 157.376C60.5945 156.8 59.8265 156 59.2665 154.976C58.7225 153.936 58.4505 152.736 58.4505 151.376ZM85.8731 151.064C85.8731 151.56 85.8411 152.008 85.7771 152.408H75.6731C75.7531 153.464 76.1451 154.312 76.8491 154.952C77.5531 155.592 78.4171 155.912 79.4411 155.912C80.9131 155.912 81.9531 155.296 82.5611 154.064H85.5131C85.1131 155.28 84.3851 156.28 83.3291 157.064C82.2891 157.832 80.9931 158.216 79.4411 158.216C78.1771 158.216 77.0411 157.936 76.0331 157.376C75.0411 156.8 74.2571 156 73.6811 154.976C73.1211 153.936 72.8411 152.736 72.8411 151.376C72.8411 150.016 73.1131 148.824 73.6571 147.8C74.2171 146.76 74.9931 145.96 75.9851 145.4C76.9931 144.84 78.1451 144.56 79.4411 144.56C80.6891 144.56 81.8011 144.832 82.7771 145.376C83.7531 145.92 84.5131 146.688 85.0571 147.68C85.6011 148.656 85.8731 149.784 85.8731 151.064ZM83.0171 150.2C83.0011 149.192 82.6411 148.384 81.9371 147.776C81.2331 147.168 80.3611 146.864 79.3211 146.864C78.3771 146.864 77.5691 147.168 76.8971 147.776C76.2251 148.368 75.8251 149.176 75.6971 150.2H83.0171ZM97.536 143.528V148.424H103.296V150.656H97.536V155.768H104.016V158H94.8V141.296H104.016V143.528H97.536ZM110.122 140.24V158H107.386V140.24H110.122ZM125.834 151.064C125.834 151.56 125.802 152.008 125.738 152.408H115.634C115.714 153.464 116.106 154.312 116.81 154.952C117.514 155.592 118.378 155.912 119.402 155.912C120.874 155.912 121.914 155.296 122.522 154.064H125.474C125.074 155.28 124.346 156.28 123.29 157.064C122.25 157.832 120.954 158.216 119.402 158.216C118.138 158.216 117.002 157.936 115.994 157.376C115.002 156.8 114.218 156 113.642 154.976C113.082 153.936 112.802 152.736 112.802 151.376C112.802 150.016 113.074 148.824 113.618 147.8C114.178 146.76 114.954 145.96 115.946 145.4C116.954 144.84 118.106 144.56 119.402 144.56C120.65 144.56 121.762 144.832 122.738 145.376C123.714 145.92 124.474 146.688 125.018 147.68C125.562 148.656 125.834 149.784 125.834 151.064ZM122.978 150.2C122.962 149.192 122.602 148.384 121.898 147.776C121.194 147.168 120.322 146.864 119.282 146.864C118.338 146.864 117.53 147.168 116.858 147.776C116.186 148.368 115.786 149.176 115.658 150.2H122.978ZM144.535 144.56C145.575 144.56 146.503 144.776 147.319 145.208C148.151 145.64 148.799 146.28 149.263 147.128C149.743 147.976 149.983 149 149.983 150.2V158H147.271V150.608C147.271 149.424 146.975 148.52 146.383 147.896C145.791 147.256 144.983 146.936 143.959 146.936C142.935 146.936 142.119 147.256 141.511 147.896C140.919 148.52 140.623 149.424 140.623 150.608V158H137.911V150.608C137.911 149.424 137.615 148.52 137.023 147.896C136.431 147.256 135.623 146.936 134.599 146.936C133.575 146.936 132.759 147.256 132.151 147.896C131.559 148.52 131.263 149.424 131.263 150.608V158H128.527V144.776H131.263V146.288C131.711 145.744 132.279 145.32 132.967 145.016C133.655 144.712 134.391 144.56 135.175 144.56C136.231 144.56 137.175 144.784 138.007 145.232C138.839 145.68 139.479 146.328 139.927 147.176C140.327 146.376 140.951 145.744 141.799 145.28C142.647 144.8 143.559 144.56 144.535 144.56ZM165.584 151.064C165.584 151.56 165.552 152.008 165.488 152.408H155.384C155.464 153.464 155.856 154.312 156.56 154.952C157.264 155.592 158.128 155.912 159.152 155.912C160.624 155.912 161.664 155.296 162.272 154.064H165.224C164.824 155.28 164.096 156.28 163.04 157.064C162 157.832 160.704 158.216 159.152 158.216C157.888 158.216 156.752 157.936 155.744 157.376C154.752 156.8 153.968 156 153.392 154.976C152.832 153.936 152.552 152.736 152.552 151.376C152.552 150.016 152.824 148.824 153.368 147.8C153.928 146.76 154.704 145.96 155.696 145.4C156.704 144.84 157.856 144.56 159.152 144.56C160.4 144.56 161.512 144.832 162.488 145.376C163.464 145.92 164.224 146.688 164.768 147.68C165.312 148.656 165.584 149.784 165.584 151.064ZM162.728 150.2C162.712 149.192 162.352 148.384 161.648 147.776C160.944 147.168 160.072 146.864 159.032 146.864C158.088 146.864 157.28 147.168 156.608 147.776C155.936 148.368 155.536 149.176 155.408 150.2H162.728ZM174.949 144.56C175.989 144.56 176.917 144.776 177.733 145.208C178.565 145.64 179.213 146.28 179.677 147.128C180.141 147.976 180.373 149 180.373 150.2V158H177.661V150.608C177.661 149.424 177.365 148.52 176.773 147.896C176.181 147.256 175.373 146.936 174.349 146.936C173.325 146.936 172.509 147.256 171.901 147.896C171.309 148.52 171.013 149.424 171.013 150.608V158H168.277V144.776H171.013V146.288C171.461 145.744 172.029 145.32 172.717 145.016C173.421 144.712 174.165 144.56 174.949 144.56ZM187.055 147.008V154.328C187.055 154.824 187.167 155.184 187.391 155.408C187.631 155.616 188.031 155.72 188.591 155.72H190.271V158H188.111C186.879 158 185.935 157.712 185.279 157.136C184.623 156.56 184.295 155.624 184.295 154.328V147.008H182.735V144.776H184.295V141.488H187.055V144.776H190.271V147.008H187.055ZM197.592 158.216C196.552 158.216 195.616 158.032 194.784 157.664C193.968 157.28 193.32 156.768 192.84 156.128C192.36 155.472 192.104 154.744 192.072 153.944H194.904C194.952 154.504 195.216 154.976 195.696 155.36C196.192 155.728 196.808 155.912 197.544 155.912C198.312 155.912 198.904 155.768 199.32 155.48C199.752 155.176 199.968 154.792 199.968 154.328C199.968 153.832 199.728 153.464 199.248 153.224C198.784 152.984 198.04 152.72 197.016 152.432C196.024 152.16 195.216 151.896 194.592 151.64C193.968 151.384 193.424 150.992 192.96 150.464C192.512 149.936 192.288 149.24 192.288 148.376C192.288 147.672 192.496 147.032 192.912 146.456C193.328 145.864 193.92 145.4 194.688 145.064C195.472 144.728 196.368 144.56 197.376 144.56C198.88 144.56 200.088 144.944 201 145.712C201.928 146.464 202.424 147.496 202.488 148.808H199.752C199.704 148.216 199.464 147.744 199.032 147.392C198.6 147.04 198.016 146.864 197.28 146.864C196.56 146.864 196.008 147 195.624 147.272C195.24 147.544 195.048 147.904 195.048 148.352C195.048 148.704 195.176 149 195.432 149.24C195.688 149.48 196 149.672 196.368 149.816C196.736 149.944 197.28 150.112 198 150.32C198.96 150.576 199.744 150.84 200.352 151.112C200.976 151.368 201.512 151.752 201.96 152.264C202.408 152.776 202.64 153.456 202.656 154.304C202.656 155.056 202.448 155.728 202.032 156.32C201.616 156.912 201.024 157.376 200.256 157.712C199.504 158.048 198.616 158.216 197.592 158.216Z" fill="#46454F"/>
<path d="M47.2271 188.816H51.1311V190H45.7711V178.848H47.2271V188.816ZM56.5013 190.144C55.68 190.144 54.9333 189.957 54.2613 189.584C53.6 189.211 53.0773 188.683 52.6933 188C52.32 187.307 52.1333 186.507 52.1333 185.6C52.1333 184.704 52.3253 183.915 52.7093 183.232C53.104 182.539 53.6373 182.011 54.3093 181.648C54.9813 181.275 55.7333 181.088 56.5653 181.088C57.3973 181.088 58.1493 181.275 58.8213 181.648C59.4933 182.011 60.0213 182.533 60.4053 183.216C60.8 183.899 60.9973 184.693 60.9973 185.6C60.9973 186.507 60.7946 187.307 60.3893 188C59.9946 188.683 59.456 189.211 58.7733 189.584C58.0906 189.957 57.3333 190.144 56.5013 190.144ZM56.5013 188.864C57.024 188.864 57.5146 188.741 57.9733 188.496C58.432 188.251 58.8 187.883 59.0773 187.392C59.3653 186.901 59.5093 186.304 59.5093 185.6C59.5093 184.896 59.3706 184.299 59.0933 183.808C58.816 183.317 58.4533 182.955 58.0053 182.72C57.5573 182.475 57.072 182.352 56.5493 182.352C56.016 182.352 55.5253 182.475 55.0773 182.72C54.64 182.955 54.288 183.317 54.0213 183.808C53.7546 184.299 53.6213 184.896 53.6213 185.6C53.6213 186.315 53.7493 186.917 54.0053 187.408C54.272 187.899 54.624 188.267 55.0613 188.512C55.4986 188.747 55.9786 188.864 56.5013 188.864ZM62.3677 185.584C62.3677 184.688 62.549 183.904 62.9117 183.232C63.2744 182.549 63.7704 182.021 64.3997 181.648C65.0397 181.275 65.749 181.088 66.5277 181.088C67.2957 181.088 67.9624 181.253 68.5277 181.584C69.093 181.915 69.5144 182.331 69.7917 182.832V181.232H71.2637V190H69.7917V188.368C69.5037 188.88 69.0717 189.307 68.4957 189.648C67.9304 189.979 67.269 190.144 66.5117 190.144C65.733 190.144 65.029 189.952 64.3997 189.568C63.7704 189.184 63.2744 188.645 62.9117 187.952C62.549 187.259 62.3677 186.469 62.3677 185.584ZM69.7917 185.6C69.7917 184.939 69.6584 184.363 69.3917 183.872C69.125 183.381 68.7624 183.008 68.3037 182.752C67.8557 182.485 67.3597 182.352 66.8157 182.352C66.2717 182.352 65.7757 182.48 65.3277 182.736C64.8797 182.992 64.5224 183.365 64.2557 183.856C63.989 184.347 63.8557 184.923 63.8557 185.584C63.8557 186.256 63.989 186.843 64.2557 187.344C64.5224 187.835 64.8797 188.213 65.3277 188.48C65.7757 188.736 66.2717 188.864 66.8157 188.864C67.3597 188.864 67.8557 188.736 68.3037 188.48C68.7624 188.213 69.125 187.835 69.3917 187.344C69.6584 186.843 69.7917 186.261 69.7917 185.6ZM73.1802 185.584C73.1802 184.688 73.3615 183.904 73.7242 183.232C74.0869 182.549 74.5829 182.021 75.2122 181.648C75.8522 181.275 76.5669 181.088 77.3562 181.088C78.0389 181.088 78.6735 181.248 79.2602 181.568C79.8469 181.877 80.2949 182.288 80.6042 182.8V178.16H82.0762V190H80.6042V188.352C80.3162 188.875 79.8895 189.307 79.3242 189.648C78.7589 189.979 78.0975 190.144 77.3402 190.144C76.5615 190.144 75.8522 189.952 75.2122 189.568C74.5829 189.184 74.0869 188.645 73.7242 187.952C73.3615 187.259 73.1802 186.469 73.1802 185.584ZM80.6042 185.6C80.6042 184.939 80.4709 184.363 80.2042 183.872C79.9375 183.381 79.5749 183.008 79.1162 182.752C78.6682 182.485 78.1722 182.352 77.6282 182.352C77.0842 182.352 76.5882 182.48 76.1402 182.736C75.6922 182.992 75.3349 183.365 75.0682 183.856C74.8015 184.347 74.6682 184.923 74.6682 185.584C74.6682 186.256 74.8015 186.843 75.0682 187.344C75.3349 187.835 75.6922 188.213 76.1402 188.48C76.5882 188.736 77.0842 188.864 77.6282 188.864C78.1722 188.864 78.6682 188.736 79.1162 188.48C79.5749 188.213 79.9375 187.835 80.2042 187.344C80.4709 186.843 80.6042 186.261 80.6042 185.6ZM88.2583 185.584C88.2583 184.688 88.4396 183.904 88.8023 183.232C89.165 182.549 89.661 182.021 90.2903 181.648C90.9303 181.275 91.645 181.088 92.4343 181.088C93.117 181.088 93.7516 181.248 94.3383 181.568C94.925 181.877 95.373 182.288 95.6823 182.8V178.16H97.1543V190H95.6823V188.352C95.3943 188.875 94.9676 189.307 94.4023 189.648C93.837 189.979 93.1756 190.144 92.4183 190.144C91.6396 190.144 90.9303 189.952 90.2903 189.568C89.661 189.184 89.165 188.645 88.8023 187.952C88.4396 187.259 88.2583 186.469 88.2583 185.584ZM95.6823 185.6C95.6823 184.939 95.549 184.363 95.2823 183.872C95.0156 183.381 94.653 183.008 94.1943 182.752C93.7463 182.485 93.2503 182.352 92.7063 182.352C92.1623 182.352 91.6663 182.48 91.2183 182.736C90.7703 182.992 90.413 183.365 90.1463 183.856C89.8796 184.347 89.7463 184.923 89.7463 185.584C89.7463 186.256 89.8796 186.843 90.1463 187.344C90.413 187.835 90.7703 188.213 91.2183 188.48C91.6663 188.736 92.1623 188.864 92.7063 188.864C93.2503 188.864 93.7463 188.736 94.1943 188.48C94.653 188.213 95.0156 187.835 95.2823 187.344C95.549 186.843 95.6823 186.261 95.6823 185.6ZM99.0708 185.584C99.0708 184.688 99.2521 183.904 99.6148 183.232C99.9775 182.549 100.473 182.021 101.103 181.648C101.743 181.275 102.452 181.088 103.231 181.088C103.999 181.088 104.665 181.253 105.231 181.584C105.796 181.915 106.217 182.331 106.495 182.832V181.232H107.967V190H106.495V188.368C106.207 188.88 105.775 189.307 105.199 189.648C104.633 189.979 103.972 190.144 103.215 190.144C102.436 190.144 101.732 189.952 101.103 189.568C100.473 189.184 99.9775 188.645 99.6148 187.952C99.2521 187.259 99.0708 186.469 99.0708 185.584ZM106.495 185.6C106.495 184.939 106.361 184.363 106.095 183.872C105.828 183.381 105.465 183.008 105.007 182.752C104.559 182.485 104.063 182.352 103.519 182.352C102.975 182.352 102.479 182.48 102.031 182.736C101.583 182.992 101.225 183.365 100.959 183.856C100.692 184.347 100.559 184.923 100.559 185.584C100.559 186.256 100.692 186.843 100.959 187.344C101.225 187.835 101.583 188.213 102.031 188.48C102.479 188.736 102.975 188.864 103.519 188.864C104.063 188.864 104.559 188.736 105.007 188.48C105.465 188.213 105.828 187.835 106.095 187.344C106.361 186.843 106.495 186.261 106.495 185.6ZM112.203 182.432V187.6C112.203 188.027 112.294 188.331 112.475 188.512C112.657 188.683 112.971 188.768 113.419 188.768H114.491V190H113.179C112.369 190 111.761 189.813 111.355 189.44C110.95 189.067 110.747 188.453 110.747 187.6V182.432H109.611V181.232H110.747V179.024H112.203V181.232H114.491V182.432H112.203ZM115.711 185.584C115.711 184.688 115.893 183.904 116.255 183.232C116.618 182.549 117.114 182.021 117.743 181.648C118.383 181.275 119.093 181.088 119.871 181.088C120.639 181.088 121.306 181.253 121.871 181.584C122.437 181.915 122.858 182.331 123.135 182.832V181.232H124.607V190H123.135V188.368C122.847 188.88 122.415 189.307 121.839 189.648C121.274 189.979 120.613 190.144 119.855 190.144C119.077 190.144 118.373 189.952 117.743 189.568C117.114 189.184 116.618 188.645 116.255 187.952C115.893 187.259 115.711 186.469 115.711 185.584ZM123.135 185.6C123.135 184.939 123.002 184.363 122.735 183.872C122.469 183.381 122.106 183.008 121.647 182.752C121.199 182.485 120.703 182.352 120.159 182.352C119.615 182.352 119.119 182.48 118.671 182.736C118.223 182.992 117.866 183.365 117.599 183.856C117.333 184.347 117.199 184.923 117.199 185.584C117.199 186.256 117.333 186.843 117.599 187.344C117.866 187.835 118.223 188.213 118.671 188.48C119.119 188.736 119.615 188.864 120.159 188.864C120.703 188.864 121.199 188.736 121.647 188.48C122.106 188.213 122.469 187.835 122.735 187.344C123.002 186.843 123.135 186.261 123.135 185.6ZM134.902 182.432H133.062V190H131.606V182.432H130.47V181.232H131.606V180.608C131.606 179.627 131.856 178.912 132.358 178.464C132.87 178.005 133.686 177.776 134.806 177.776V178.992C134.166 178.992 133.712 179.12 133.446 179.376C133.19 179.621 133.062 180.032 133.062 180.608V181.232H134.902V182.432ZM137.351 179.808C137.074 179.808 136.839 179.712 136.647 179.52C136.455 179.328 136.359 179.093 136.359 178.816C136.359 178.539 136.455 178.304 136.647 178.112C136.839 177.92 137.074 177.824 137.351 177.824C137.618 177.824 137.842 177.92 138.023 178.112C138.215 178.304 138.311 178.539 138.311 178.816C138.311 179.093 138.215 179.328 138.023 179.52C137.842 179.712 137.618 179.808 137.351 179.808ZM138.055 181.232V190H136.599V181.232H138.055ZM141.993 182.656C142.249 182.155 142.611 181.765 143.081 181.488C143.561 181.211 144.142 181.072 144.825 181.072V182.576H144.441C142.809 182.576 141.993 183.461 141.993 185.232V190H140.537V181.232H141.993V182.656ZM149.609 190.144C148.937 190.144 148.335 190.032 147.801 189.808C147.268 189.573 146.847 189.253 146.537 188.848C146.228 188.432 146.057 187.957 146.025 187.424H147.529C147.572 187.861 147.775 188.219 148.137 188.496C148.511 188.773 148.996 188.912 149.593 188.912C150.148 188.912 150.585 188.789 150.905 188.544C151.225 188.299 151.385 187.989 151.385 187.616C151.385 187.232 151.215 186.949 150.873 186.768C150.532 186.576 150.004 186.389 149.289 186.208C148.639 186.037 148.105 185.867 147.689 185.696C147.284 185.515 146.932 185.253 146.633 184.912C146.345 184.56 146.201 184.101 146.201 183.536C146.201 183.088 146.335 182.677 146.601 182.304C146.868 181.931 147.247 181.637 147.737 181.424C148.228 181.2 148.788 181.088 149.417 181.088C150.388 181.088 151.172 181.333 151.769 181.824C152.367 182.315 152.687 182.987 152.729 183.84H151.273C151.241 183.381 151.055 183.013 150.713 182.736C150.383 182.459 149.935 182.32 149.369 182.32C148.847 182.32 148.431 182.432 148.121 182.656C147.812 182.88 147.657 183.173 147.657 183.536C147.657 183.824 147.748 184.064 147.929 184.256C148.121 184.437 148.356 184.587 148.633 184.704C148.921 184.811 149.316 184.933 149.817 185.072C150.447 185.243 150.959 185.413 151.353 185.584C151.748 185.744 152.084 185.989 152.361 186.32C152.649 186.651 152.799 187.083 152.809 187.616C152.809 188.096 152.676 188.528 152.409 188.912C152.143 189.296 151.764 189.6 151.273 189.824C150.793 190.037 150.239 190.144 149.609 190.144ZM156.641 182.432V187.6C156.641 188.027 156.731 188.331 156.913 188.512C157.094 188.683 157.409 188.768 157.857 188.768H158.929V190H157.617C156.806 190 156.198 189.813 155.793 189.44C155.387 189.067 155.185 188.453 155.185 187.6V182.432H154.049V181.232H155.185V179.024H156.641V181.232H158.929V182.432H156.641Z" fill="#46454F"/>
</svg>
