<svg width="32" height="32" viewBox="0 0 32 32" fill="none" xmlns="http://www.w3.org/2000/svg">
<path fill-rule="evenodd" clip-rule="evenodd" d="M16 32C24.8366 32 32 24.8366 32 16C32 7.16344 24.8366 0 16 0C7.16344 0 0 7.16344 0 16C0 24.8366 7.16344 32 16 32ZM25.0048 13.3063L16.0257 4.32715L7.04654 13.3063L9.74027 16L7.04654 18.6937L16.0257 27.6728L25.0048 18.6937L22.311 16L25.0048 13.3063ZM21.0412 14.7302L22.4651 13.3063L16.0257 6.86683L9.58622 13.3063L11.0101 14.7302L16.0257 9.71462L21.0412 14.7302ZM12.28 16L16.0257 12.2543L19.7714 16L16.0257 19.7457L12.28 16ZM11.0101 17.2698L16.0257 22.2854L21.0412 17.2698L22.4651 18.6937L16.0257 25.1332L9.58622 18.6937L11.0101 17.2698Z" fill="white"/>
</svg>
