<svg width="153" height="80" viewBox="0 0 153 80" fill="none" xmlns="http://www.w3.org/2000/svg">
<path d="M29.0834 27.5701V53.6636H23.8877V36.6916L16.9476 53.6636H13.0137L6.03657 36.6916V53.6636H0.84082V27.5701H6.74171L14.9807 46.972L23.2197 27.5701H29.0834Z" fill="#9593A2"/>
<path d="M32.8843 43.2336C32.8843 41.1402 33.2925 39.2835 34.109 37.6636C34.9502 36.0436 36.0759 34.7975 37.4862 33.9252C38.9212 33.053 40.5171 32.6168 42.2737 32.6168C43.8077 32.6168 45.1438 32.9283 46.2819 33.5514C47.4447 34.1745 48.3725 34.9595 49.0653 35.9065V32.9533H54.2982V53.6636H49.0653V50.6355C48.3973 51.6075 47.4695 52.4174 46.2819 53.0654C45.119 53.6885 43.7706 54 42.2366 54C40.5047 54 38.9212 53.5514 37.4862 52.6542C36.0759 51.757 34.9502 50.4984 34.109 48.8785C33.2925 47.2336 32.8843 45.352 32.8843 43.2336ZM49.0653 43.3084C49.0653 42.0374 48.8179 40.9533 48.3231 40.0561C47.8282 39.134 47.1602 38.4361 46.319 37.9626C45.4778 37.4642 44.5747 37.215 43.6098 37.215C42.6449 37.215 41.7542 37.4517 40.9377 37.9252C40.1212 38.3988 39.4532 39.0966 38.9336 40.0187C38.4388 40.9159 38.1914 41.9875 38.1914 43.2336C38.1914 44.4798 38.4388 45.5763 38.9336 46.5234C39.4532 47.4455 40.1212 48.1558 40.9377 48.6542C41.7789 49.1526 42.6696 49.4019 43.6098 49.4019C44.5747 49.4019 45.4778 49.1651 46.319 48.6916C47.1602 48.1931 47.8282 47.4953 48.3231 46.5981C48.8179 45.676 49.0653 44.5794 49.0653 43.3084Z" fill="#9593A2"/>
<path d="M71.5456 53.6636L64.5685 44.8411V53.6636H59.3727V26H64.5685V41.7383L71.4714 32.9533H78.2259L69.1704 43.3458L78.3001 53.6636H71.5456Z" fill="#9593A2"/>
<path d="M100.159 42.8598C100.159 43.6075 100.109 44.2804 100.01 44.8785H84.9798C85.1035 46.3738 85.6231 47.5452 86.5385 48.3925C87.4539 49.2399 88.5797 49.6636 89.9157 49.6636C91.8456 49.6636 93.2187 48.8287 94.0352 47.1589H99.6392C99.0454 49.1526 97.9073 50.7975 96.2249 52.0935C94.5424 53.3645 92.4765 54 90.0271 54C88.0477 54 86.2663 53.5639 84.6829 52.6916C83.1241 51.7944 81.8994 50.5358 81.0087 48.9159C80.1428 47.296 79.7098 45.4268 79.7098 43.3084C79.7098 41.1651 80.1428 39.2835 81.0087 37.6636C81.8747 36.0436 83.087 34.7975 84.6458 33.9252C86.2045 33.053 87.9983 32.6168 90.0271 32.6168C91.9817 32.6168 93.7259 33.0405 95.2599 33.8878C96.8186 34.7352 98.0186 35.9439 98.8598 37.514C99.7258 39.0592 100.159 40.8411 100.159 42.8598ZM94.7775 41.3645C94.7527 40.0187 94.2703 38.947 93.3301 38.1495C92.3899 37.3271 91.2394 36.9159 89.8786 36.9159C88.592 36.9159 87.5034 37.3146 86.6127 38.1122C85.7468 38.8847 85.2148 39.9688 85.0169 41.3645H94.7775Z" fill="#9593A2"/>
<path d="M110.001 37.2523V47.271C110.001 47.9688 110.161 48.4798 110.483 48.8037C110.829 49.1028 111.398 49.2523 112.19 49.2523H114.602V53.6636H111.337C106.957 53.6636 104.768 51.5203 104.768 47.2336V37.2523H102.318V32.9533H104.768V27.8318H110.001V32.9533H114.602V37.2523H110.001Z" fill="#9593A2"/>
<path d="M124.389 37.2523V47.271C124.389 47.9688 124.55 48.4798 124.871 48.8037C125.218 49.1028 125.787 49.2523 126.579 49.2523H128.991V53.6636H125.725C121.346 53.6636 119.156 51.5203 119.156 47.2336V37.2523H116.707V32.9533H119.156V27.8318H124.389V32.9533H128.991V37.2523H124.389Z" fill="#9593A2"/>
<path d="M151.841 42.8598C151.841 43.6075 151.791 44.2804 151.692 44.8785H136.662C136.786 46.3738 137.305 47.5452 138.221 48.3925C139.136 49.2399 140.262 49.6636 141.598 49.6636C143.528 49.6636 144.901 48.8287 145.717 47.1589H151.321C150.727 49.1526 149.589 50.7975 147.907 52.0935C146.224 53.3645 144.159 54 141.709 54C139.73 54 137.948 53.5639 136.365 52.6916C134.806 51.7944 133.581 50.5358 132.691 48.9159C131.825 47.296 131.392 45.4268 131.392 43.3084C131.392 41.1651 131.825 39.2835 132.691 37.6636C133.557 36.0436 134.769 34.7975 136.328 33.9252C137.887 33.053 139.68 32.6168 141.709 32.6168C143.664 32.6168 145.408 33.0405 146.942 33.8878C148.501 34.7352 149.701 35.9439 150.542 37.514C151.408 39.0592 151.841 40.8411 151.841 42.8598ZM146.46 41.3645C146.435 40.0187 145.952 38.947 145.012 38.1495C144.072 37.3271 142.921 36.9159 141.561 36.9159C140.274 36.9159 139.185 37.3146 138.295 38.1122C137.429 38.8847 136.897 39.9688 136.699 41.3645H146.46Z" fill="#9593A2"/>
</svg>
