<svg width="152" height="80" viewBox="0 0 152 80" fill="none" xmlns="http://www.w3.org/2000/svg">
<path d="M16.1815 43.5097C16.1815 41.7082 15.9482 40.4121 15.4816 39.6212C15.0373 38.8084 14.193 38.4019 12.9488 38.4019C12.5044 38.4019 12.0156 38.4349 11.4824 38.5008C10.9492 38.5667 10.5493 38.6216 10.2827 38.6656V52.5718H6.25012V35.8975C7.02775 35.6778 8.03865 35.4691 9.28285 35.2714C10.5493 35.0737 11.8823 34.9748 13.2821 34.9748C14.4818 34.9748 15.4594 35.1286 16.2148 35.4362C16.9924 35.7437 17.6367 36.1501 18.1478 36.6554C18.3922 36.4797 18.7032 36.2929 19.0809 36.0952C19.4586 35.8975 19.8807 35.7217 20.3473 35.568C20.8139 35.3922 21.3027 35.2494 21.8137 35.1396C22.3469 35.0297 22.8801 34.9748 23.4134 34.9748C24.7687 34.9748 25.8796 35.1725 26.746 35.568C27.6347 35.9415 28.3236 36.4797 28.8123 37.1827C29.3234 37.8637 29.6676 38.6985 29.8454 39.6871C30.0454 40.6537 30.1454 41.7192 30.1454 42.8836V52.5718H26.1128V43.5097C26.1128 41.7082 25.8907 40.4121 25.4463 39.6212C25.0019 38.8084 24.1466 38.4019 22.8801 38.4019C22.2358 38.4019 21.6249 38.5118 21.0472 38.7315C20.4695 38.9292 20.0363 39.1269 19.7474 39.3246C19.9252 39.8738 20.0474 40.456 20.114 41.0711C20.1807 41.6863 20.214 42.3453 20.214 43.0483V52.5718H16.1815V43.5097ZM41.2177 49.7708C42.4617 49.7708 43.4061 49.7049 44.0505 49.573V45.1573C43.8281 45.0914 43.506 45.0255 43.084 44.9596C42.6617 44.8937 42.1951 44.8608 41.6843 44.8608C41.2398 44.8608 40.7844 44.8937 40.3179 44.9596C39.8734 45.0255 39.4623 45.1463 39.0848 45.3221C38.7291 45.4979 38.4404 45.7505 38.2183 46.08C37.9959 46.3876 37.885 46.783 37.885 47.2663C37.885 48.211 38.185 48.87 38.7848 49.2435C39.3847 49.5949 40.1955 49.7708 41.2177 49.7708ZM40.8844 34.9089C42.2175 34.9089 43.3394 35.0737 44.2504 35.4032C45.1612 35.7327 45.8834 36.1941 46.4167 36.7872C46.972 37.3804 47.3608 38.1054 47.5831 38.9621C47.8273 39.797 47.9497 40.7197 47.9497 41.7302V52.1763C47.3274 52.3082 46.3833 52.4619 45.1169 52.6377C43.8726 52.8354 42.4617 52.9343 40.8844 52.9343C39.8401 52.9343 38.8848 52.8354 38.0183 52.6377C37.1518 52.44 36.4075 52.1215 35.7854 51.682C35.1856 51.2426 34.7078 50.6716 34.3524 49.9685C34.0191 49.2655 33.8525 48.3977 33.8525 47.3652C33.8525 46.3766 34.0413 45.5418 34.419 44.8608C34.819 44.1797 35.3522 43.6305 36.0187 43.2131C36.6853 42.7737 37.4518 42.4662 38.3183 42.2904C39.2069 42.0927 40.1289 41.9938 41.0844 41.9938C41.5286 41.9938 41.9952 42.0268 42.4841 42.0927C42.9728 42.1366 43.4949 42.2245 44.0505 42.3563V41.6973C44.0505 41.2359 43.9948 40.7965 43.8838 40.3791C43.7727 39.9617 43.5727 39.5992 43.2839 39.2917C43.0173 38.9621 42.6507 38.7095 42.1842 38.5338C41.7397 38.358 41.1732 38.2701 40.4845 38.2701C39.5514 38.2701 38.6958 38.336 37.9183 38.4678C37.1406 38.5997 36.5074 38.7534 36.0187 38.9292L35.5188 35.6998C36.0297 35.524 36.774 35.3483 37.7517 35.1725C38.7291 34.9968 39.7735 34.9089 40.8844 34.9089ZM62.8193 38.9292C62.4861 38.8193 62.0195 38.7095 61.4196 38.5997C60.8419 38.4678 60.1644 38.4019 59.3867 38.4019C58.9423 38.4019 58.4647 38.4459 57.9536 38.5338C57.4649 38.6216 57.1205 38.6985 56.9205 38.7644V52.5718H52.888V36.1611C53.6657 35.8755 54.6322 35.6119 55.7874 35.3703C56.965 35.1066 58.2648 34.9748 59.6866 34.9748C59.9532 34.9748 60.2644 34.9968 60.6198 35.0407C60.9752 35.0627 61.3308 35.1066 61.6862 35.1725C62.0416 35.2165 62.3861 35.2824 62.7194 35.3703C63.0526 35.4362 63.3192 35.5021 63.5192 35.568L62.8193 38.9292ZM70.3619 42.0597C70.8727 41.5325 71.4171 40.9723 71.9949 40.3791C72.5724 39.764 73.139 39.1599 73.6946 38.5667C74.2499 37.9516 74.772 37.3694 75.2609 36.8202C75.7718 36.249 76.205 35.7547 76.5606 35.3373H81.3264C80.2154 36.5676 79.0378 37.8417 77.7937 39.1599C76.5716 40.478 75.3385 41.7632 74.0945 43.0154C74.761 43.5646 75.4609 44.2346 76.1941 45.0255C76.9272 45.7944 77.6381 46.6183 78.327 47.497C79.0156 48.3757 79.66 49.2545 80.2599 50.1332C80.8598 51.0119 81.3597 51.8249 81.7596 52.5718H77.0939C76.694 51.8908 76.2274 51.1767 75.6942 50.4298C75.1831 49.683 74.6277 48.9579 74.0278 48.2549C73.4279 47.5519 72.8169 46.8929 72.1949 46.2777C71.5726 45.6406 70.9618 45.1024 70.3619 44.663V52.5718H66.3294V27.6592L70.3619 27.0002V42.0597ZM82.9375 44.0369C82.9375 42.5211 83.1596 41.192 83.604 40.0496C84.0706 38.9072 84.6817 37.9626 85.437 37.2156C86.1923 36.4467 87.0588 35.8755 88.0365 35.5021C89.0141 35.1066 90.0139 34.9089 91.0359 34.9089C93.4354 34.9089 95.3017 35.6449 96.6348 37.1168C97.99 38.5887 98.6677 40.7856 98.6677 43.7074C98.6677 43.9271 98.6565 44.1797 98.6344 44.4653C98.6344 44.7289 98.6232 44.9706 98.601 45.1903H87.1033C87.2145 46.5743 87.7032 47.6508 88.5697 48.4197C89.4583 49.1666 90.7359 49.5401 92.4023 49.5401C93.3799 49.5401 94.2686 49.4523 95.0684 49.2765C95.8904 49.1007 96.5348 48.914 97.0013 48.7163L97.5346 51.9786C97.3125 52.0885 97.0013 52.2093 96.6014 52.3411C96.2236 52.451 95.7794 52.5499 95.2684 52.6377C94.7796 52.7476 94.2464 52.8354 93.6687 52.9013C93.0909 52.9672 92.5022 53.0002 91.9024 53.0002C90.3693 53.0002 89.0363 52.7806 87.9032 52.3411C86.77 51.8798 85.8369 51.2537 85.1037 50.4628C84.3705 49.65 83.8261 48.7053 83.4707 47.6288C83.1153 46.5304 82.9375 45.3331 82.9375 44.0369ZM94.6351 42.2575C94.6351 41.7082 94.5573 41.192 94.4019 40.7087C94.2464 40.2034 94.0131 39.775 93.702 39.4235C93.4132 39.05 93.0467 38.7644 92.6022 38.5667C92.1802 38.347 91.6691 38.2372 91.0692 38.2372C90.4472 38.2372 89.9028 38.358 89.4362 38.5997C88.9696 38.8193 88.5697 39.1159 88.2364 39.4894C87.9253 39.8629 87.6811 40.2913 87.5032 40.7746C87.3254 41.2579 87.2033 41.7522 87.1366 42.2575H94.6351ZM102.743 30.7898L106.776 30.1307V35.3373H112.974V38.6656H106.776V45.6846C106.776 47.0686 106.998 48.0572 107.442 48.6504C107.887 49.2435 108.642 49.5401 109.708 49.5401C110.442 49.5401 111.086 49.4631 111.641 49.3094C112.219 49.1556 112.674 49.0128 113.008 48.881L113.674 52.0445C113.208 52.2422 112.597 52.44 111.841 52.6377C111.086 52.8573 110.197 52.9672 109.175 52.9672C107.931 52.9672 106.887 52.8025 106.042 52.4729C105.22 52.1434 104.565 51.671 104.076 51.0559C103.587 50.4188 103.243 49.6608 103.043 48.7822C102.843 47.8814 102.743 46.8599 102.743 45.7175V30.7898ZM115.613 44.0369C115.613 42.5211 115.835 41.192 116.28 40.0496C116.746 38.9072 117.357 37.9626 118.113 37.2156C118.868 36.4467 119.735 35.8755 120.712 35.5021C121.69 35.1066 122.69 34.9089 123.712 34.9089C126.111 34.9089 127.978 35.6449 129.311 37.1168C130.666 38.5887 131.344 40.7856 131.344 43.7074C131.344 43.9271 131.332 44.1797 131.31 44.4653C131.31 44.7289 131.299 44.9706 131.277 45.1903H119.779C119.89 46.5743 120.379 47.6508 121.246 48.4197C122.134 49.1666 123.412 49.5401 125.078 49.5401C126.056 49.5401 126.944 49.4523 127.744 49.2765C128.566 49.1007 129.211 48.914 129.677 48.7163L130.21 51.9786C129.988 52.0885 129.677 52.2093 129.277 52.3411C128.9 52.451 128.455 52.5499 127.944 52.6377C127.455 52.7476 126.922 52.8354 126.345 52.9013C125.767 52.9672 125.178 53.0002 124.578 53.0002C123.045 53.0002 121.712 52.7806 120.579 52.3411C119.446 51.8798 118.513 51.2537 117.78 50.4628C117.046 49.65 116.502 48.7053 116.147 47.6288C115.791 46.5304 115.613 45.3331 115.613 44.0369ZM127.311 42.2575C127.311 41.7082 127.233 41.192 127.078 40.7087C126.922 40.2034 126.689 39.775 126.378 39.4235C126.089 39.05 125.722 38.7644 125.278 38.5667C124.856 38.347 124.345 38.2372 123.745 38.2372C123.123 38.2372 122.579 38.358 122.112 38.5997C121.646 38.8193 121.246 39.1159 120.912 39.4894C120.601 39.8629 120.357 40.2913 120.179 40.7746C120.001 41.2579 119.879 41.7522 119.813 42.2575H127.311ZM145.55 38.9292C145.217 38.8193 144.75 38.7095 144.151 38.5997C143.573 38.4678 142.895 38.4019 142.118 38.4019C141.673 38.4019 141.196 38.4459 140.685 38.5338C140.196 38.6216 139.851 38.6985 139.651 38.7644V52.5718H135.619V36.1611C136.397 35.8755 137.363 35.6119 138.518 35.3703C139.696 35.1066 140.996 34.9748 142.418 34.9748C142.684 34.9748 142.995 34.9968 143.351 35.0407C143.706 35.0627 144.062 35.1066 144.417 35.1725C144.773 35.2165 145.117 35.2824 145.45 35.3703C145.784 35.4362 146.05 35.5021 146.25 35.568L145.55 38.9292Z" fill="#9593A2"/>
</svg>
