<svg width="153" height="80" viewBox="0 0 153 80" fill="none" xmlns="http://www.w3.org/2000/svg">
<g opacity="0.9">
<path d="M100.314 19.3854C100.541 19.5538 101.019 19.9891 100.993 20.3039V37.1606C101.015 37.5615 100.885 37.9552 100.632 38.255C100.501 38.3905 100.344 38.4957 100.173 38.564C100.001 38.6323 99.8177 38.6621 99.6345 38.6516C99.4572 38.6619 99.2798 38.6319 99.1144 38.5635C98.9491 38.495 98.7997 38.3898 98.6763 38.255C98.4318 37.9507 98.3074 37.5589 98.329 37.1606V22.2377C97.2157 22.9393 96.242 23.8619 95.4618 24.9544C94.0397 27.0863 93.0794 29.5218 92.6488 32.0884C92.5472 32.3985 92.3567 32.6676 92.1036 32.8585C91.8506 33.0495 91.5475 33.1528 91.2363 33.1542C90.9205 33.1756 90.6073 33.0809 90.3502 32.8863C90.0931 32.6917 89.908 32.4091 89.8262 32.0867C89.8262 32.0867 89.1875 27.9035 87.7702 25.4966C86.9432 24.0723 85.735 22.9378 84.2977 22.236L84.138 37.1589C84.1596 37.5572 84.0353 37.949 83.7907 38.2534C83.663 38.3893 83.5093 38.4949 83.3398 38.5633C83.1703 38.6317 82.9889 38.6612 82.8078 38.6499C82.6278 38.6585 82.4482 38.6262 82.281 38.5552C82.1139 38.4842 81.9633 38.3761 81.8393 38.2382C81.5898 37.9406 81.4601 37.5523 81.4776 37.1556V20.3039C81.4815 20.0269 81.5629 19.7573 81.7114 19.5288C81.86 19.3003 82.0691 19.123 82.3128 19.0192C86.9175 18.1151 90.8563 23.1646 91.2515 27.2207C91.6787 23.1696 97.0954 17.4896 100.314 19.3854Z" fill="#9593A2"/>
<path d="M105.562 19.8415C105.398 19.6773 105.27 19.4781 105.185 19.2573C105.1 19.0364 105.061 18.7991 105.07 18.561C105.061 18.3256 105.1 18.0907 105.185 17.8727C105.269 17.6546 105.398 17.4586 105.562 17.2982C105.942 16.9917 106.407 16.8256 106.885 16.8256C107.363 16.8256 107.828 16.9917 108.208 17.2982C108.376 17.4564 108.508 17.6516 108.595 17.8699C108.683 18.0882 108.723 18.3242 108.714 18.561C108.723 18.7991 108.684 19.0364 108.599 19.2572C108.515 19.478 108.386 19.6772 108.223 19.8415C107.844 20.1576 107.375 20.3295 106.892 20.3295C106.409 20.3295 105.941 20.1576 105.562 19.8415ZM105.837 38.2877C105.693 38.1507 105.58 37.9811 105.507 37.7914C105.435 37.6018 105.404 37.3972 105.418 37.1932V24.8119C105.404 24.6052 105.435 24.3979 105.508 24.2053C105.58 24.0128 105.693 23.8397 105.837 23.6989C106.132 23.4388 106.508 23.303 106.892 23.3176C107.272 23.3023 107.642 23.4385 107.93 23.6989C108.071 23.8422 108.179 24.016 108.249 24.2083C108.319 24.4005 108.349 24.6065 108.335 24.8119V37.1873C108.349 37.39 108.32 37.5934 108.25 37.7828C108.18 37.9721 108.071 38.1426 107.93 38.2818C107.638 38.5333 107.269 38.6635 106.892 38.648C106.511 38.6647 106.136 38.5369 105.837 38.2877Z" fill="#9593A2"/>
<path d="M125.081 29.2637V37.1874C125.093 37.3868 125.064 37.5865 124.997 37.7732C124.929 37.96 124.825 38.1293 124.69 38.27C124.389 38.5395 124.001 38.6761 123.606 38.6514C123.414 38.6619 123.222 38.6323 123.041 38.5643C122.86 38.4962 122.693 38.3911 122.55 38.2549C122.418 38.1155 122.315 37.9485 122.248 37.7647C122.181 37.5808 122.151 37.3842 122.16 37.1874V29.4127C122.237 28.4281 121.987 27.4457 121.452 26.6346C121.169 26.3223 120.824 26.0807 120.441 25.9278C120.058 25.7748 119.647 25.7143 119.239 25.7506C118.717 25.7261 118.195 25.8164 117.707 26.0158C117.219 26.2152 116.776 26.5194 116.406 26.909C116.04 27.3262 115.757 27.8162 115.573 28.3502C115.389 28.8842 115.309 29.4515 115.336 30.0189V37.1874C115.345 37.3842 115.315 37.5808 115.248 37.7647C115.18 37.9485 115.077 38.1155 114.945 38.2549C114.803 38.391 114.636 38.4961 114.455 38.5641C114.274 38.6322 114.082 38.6618 113.89 38.6514C113.498 38.6707 113.114 38.5285 112.82 38.2549C112.684 38.1179 112.577 37.9517 112.507 37.7675C112.437 37.5834 112.406 37.3855 112.415 37.1874V24.7783C112.409 24.5816 112.444 24.3859 112.516 24.2045C112.588 24.0231 112.697 23.8602 112.834 23.7268C113.121 23.4492 113.5 23.3014 113.89 23.3151C114.075 23.3053 114.26 23.3354 114.434 23.4036C114.609 23.4718 114.768 23.5766 114.902 23.7116C115.028 23.8484 115.127 24.0108 115.191 24.189C115.256 24.3671 115.285 24.5573 115.278 24.748V25.9981C115.717 25.1294 116.391 24.4183 117.215 23.9558C118.08 23.479 119.044 23.2379 120.02 23.2545C123.393 23.2562 125.08 25.2593 125.081 29.2637Z" fill="#9593A2"/>
<path d="M141.678 17.2472C141.814 17.3843 141.92 17.5505 141.99 17.7346C142.06 17.9188 142.092 18.1166 142.083 18.3147V37.1565C142.093 37.3575 142.064 37.5586 141.997 37.747C141.93 37.9354 141.826 38.1071 141.692 38.2509C141.394 38.5073 141.022 38.6474 140.637 38.6474C140.252 38.6474 139.879 38.5073 139.581 38.2509C139.448 38.1069 139.345 37.9352 139.277 37.7468C139.21 37.5584 139.181 37.3574 139.192 37.1565V35.9366C138.79 36.8068 138.144 37.5254 137.341 37.995C136.481 38.4858 135.514 38.7327 134.537 38.7114C133.385 38.7306 132.253 38.3912 131.283 37.7357C130.309 37.062 129.537 36.1105 129.056 34.992C128.506 33.7201 128.233 32.3344 128.258 30.9368C128.229 29.5387 128.502 28.1521 129.056 26.8815C129.528 25.7744 130.301 24.8392 131.276 24.1936C132.251 23.548 133.385 23.2208 134.536 23.253C135.509 23.2307 136.472 23.4777 137.326 23.9695C138.116 24.439 138.755 25.1471 139.16 26.0026V18.2574C139.152 18.0676 139.182 17.8782 139.25 17.702C139.317 17.5258 139.419 17.367 139.55 17.2362C139.842 16.9699 140.22 16.8332 140.606 16.8549C140.998 16.8344 141.382 16.975 141.678 17.2472ZM138.15 34.9003C138.908 33.7618 139.274 32.385 139.188 30.9974C139.272 29.6117 138.91 28.2367 138.162 27.0945C137.811 26.6367 137.361 26.2735 136.851 26.0349C136.341 25.7963 135.784 25.6891 135.227 25.7222C134.667 25.6909 134.107 25.7972 133.593 26.0327C133.079 26.2682 132.623 26.6265 132.263 27.0793C131.496 28.1964 131.123 29.5601 131.207 30.9359C131.129 32.3324 131.507 33.7148 132.277 34.854C132.642 35.2953 133.091 35.65 133.595 35.8944C134.1 36.1388 134.647 36.2674 135.202 36.2717C135.757 36.276 136.307 36.1559 136.815 35.9193C137.322 35.6827 137.777 35.3351 138.147 34.8994L138.15 34.9003Z" fill="#9593A2"/>
<path d="M114.995 48.4023C115.91 49.3985 116.368 50.9139 116.368 52.9484V60.8451C116.38 61.0431 116.353 61.2416 116.288 61.428C116.224 61.6144 116.123 61.7846 115.993 61.9277C115.708 62.1945 115.335 62.3316 114.955 62.3091C114.769 62.3236 114.582 62.2956 114.408 62.2272C114.233 62.1588 114.075 62.0515 113.943 61.9126C113.811 61.7738 113.709 61.6066 113.645 61.4225C113.58 61.2385 113.553 61.0418 113.567 60.8459V59.7178C113.229 60.5365 112.658 61.2239 111.933 61.6844C111.166 62.1542 110.29 62.3916 109.403 62.3706C108.527 62.3824 107.661 62.1789 106.873 61.7762C106.144 61.4098 105.521 60.8469 105.066 60.1447C104.622 59.4519 104.39 58.6325 104.401 57.7967C104.33 56.8633 104.61 55.9378 105.182 55.2206C105.909 54.4998 106.829 54.0314 107.816 53.8787C109.486 53.5639 111.181 53.426 112.877 53.467H113.542V52.583C113.617 51.7016 113.38 50.8222 112.877 50.1138C112.591 49.8364 112.252 49.6253 111.884 49.4941C111.515 49.3629 111.125 49.3145 110.737 49.3519C110.092 49.3477 109.449 49.4401 108.829 49.6264C108.156 49.8395 107.498 50.1046 106.862 50.4194C106.531 50.6514 106.156 50.8072 105.764 50.8766C105.629 50.8805 105.495 50.8522 105.372 50.7939C105.25 50.7356 105.141 50.6487 105.055 50.5398C104.867 50.3006 104.769 49.9967 104.78 49.6862C104.775 49.3956 104.862 49.1115 105.026 48.878C105.246 48.5953 105.517 48.362 105.824 48.1918C106.574 47.7776 107.371 47.4663 108.196 47.2658C109.057 47.0381 109.942 46.9205 110.831 46.9156C111.584 46.8532 112.342 46.9528 113.057 47.2084C113.773 47.464 114.432 47.8701 114.995 48.4023ZM112.519 58.9366C113.209 58.1333 113.573 57.077 113.532 55.9943V55.1979H113.011C111.851 55.175 110.691 55.2465 109.541 55.4117C108.911 55.4758 108.31 55.7239 107.806 56.1281C107.626 56.3162 107.487 56.5428 107.397 56.7926C107.307 57.0424 107.269 57.3096 107.285 57.5761C107.276 57.916 107.339 58.2538 107.469 58.565C107.599 58.8761 107.794 59.1529 108.038 59.3752C108.558 59.8504 109.23 60.1009 109.918 60.0765C110.404 60.0937 110.888 60.0008 111.337 59.8041C111.786 59.6073 112.19 59.3112 112.522 58.9357L112.519 58.9366Z" fill="#9593A2"/>
<path d="M130.898 47.2136C131.111 47.074 131.356 47 131.606 46.9997C131.965 46.9971 132.312 47.1389 132.575 47.3962C132.706 47.5117 132.812 47.6563 132.884 47.8197C132.957 47.9831 132.994 48.1613 132.994 48.3417C132.995 48.5412 132.955 48.7385 132.878 48.9209L127.355 61.2685C127.23 61.5818 127.012 61.8438 126.733 62.0153C126.467 62.1847 126.162 62.2743 125.852 62.2743C125.541 62.2743 125.236 62.1847 124.97 62.0153C124.691 61.8441 124.473 61.582 124.348 61.2685L118.825 48.9209C118.744 48.74 118.704 48.5416 118.709 48.3417C118.711 48.1569 118.754 47.9752 118.834 47.811C118.915 47.6469 119.03 47.5048 119.172 47.3962C119.463 47.1392 119.831 46.9987 120.21 46.9997C120.475 46.994 120.735 47.0724 120.956 47.2246C121.178 47.3769 121.351 47.596 121.453 47.8534L125.935 58.3413L130.389 47.8837C130.483 47.6069 130.663 47.3711 130.898 47.2136Z" fill="#9593A2"/>
<path d="M146.903 58.7338C147.083 58.9772 147.174 59.2795 147.163 59.5874C147.139 59.9139 147.03 60.2269 146.846 60.4911C146.663 60.7552 146.413 60.9598 146.125 61.0818C145.43 61.4974 144.686 61.8153 143.913 62.0272C143.164 62.2439 142.391 62.3571 141.614 62.3639C140.646 62.419 139.677 62.2648 138.767 61.9108C137.857 61.5569 137.025 61.0106 136.322 60.3056C135.656 59.5538 135.142 58.6681 134.809 57.7014C134.476 56.7347 134.332 55.7071 134.385 54.6802C134.359 53.2761 134.651 51.8858 135.238 50.6249C135.771 49.4863 136.605 48.5338 137.638 47.8813C138.702 47.2215 139.917 46.8838 141.151 46.9056C141.986 46.8628 142.819 47.0125 143.593 47.3443C144.367 47.6761 145.063 48.182 145.633 48.8267C146.787 50.2712 147.376 52.1243 147.281 54.0101C147.281 54.8233 146.935 55.2299 146.243 55.2299H137.303C137.495 58.3808 138.933 59.9559 141.614 59.9553C142.243 59.9696 142.87 59.8664 143.464 59.6506C144.03 59.4257 144.581 59.1607 145.113 58.8575C145.171 58.8171 145.33 58.7313 145.592 58.5982C145.793 58.4836 146.015 58.4161 146.243 58.4004C146.37 58.3985 146.496 58.4276 146.61 58.4854C146.725 58.5433 146.825 58.6283 146.903 58.7338ZM138.519 50.2882C137.791 51.173 137.363 52.2887 137.304 53.4587H144.765C144.783 52.3082 144.431 51.1851 143.767 50.2722C143.447 49.8965 143.05 49.6015 142.607 49.4089C142.165 49.2163 141.686 49.1309 141.208 49.1592C140.709 49.1367 140.211 49.226 139.747 49.4213C139.284 49.6167 138.865 49.9136 138.518 50.2924L138.519 50.2882Z" fill="#9593A2"/>
<path d="M101.024 61.7786C101.251 61.6102 101.729 61.175 101.704 60.8601L101.651 43.6532C101.673 43.2523 101.543 42.8586 101.29 42.5588C101.159 42.4233 101.002 42.3181 100.83 42.2498C100.659 42.1815 100.475 42.1517 100.292 42.1623C100.115 42.1519 99.9375 42.1819 99.7722 42.2503C99.6068 42.3188 99.4574 42.424 99.3341 42.5588C99.0895 42.8631 98.9652 43.2549 98.9868 43.6532L99.0395 58.9272C97.9262 58.2255 96.9524 57.3029 96.1722 56.2105C94.6444 53.9677 93.578 51.413 93.0415 48.7103C92.9398 48.3991 92.7487 48.129 92.4947 47.9377C92.2407 47.7463 91.9364 47.6433 91.6242 47.6428C91.3083 47.6214 90.9952 47.716 90.7381 47.9107C90.481 48.1053 90.2958 48.3879 90.2141 48.7103C90.2141 48.7103 89.5754 52.8935 88.1581 55.3004C87.3311 56.7247 86.1229 57.8591 84.6856 58.561L84.5259 43.638C84.5475 43.2398 84.4232 42.848 84.1786 42.5436C84.0509 42.4077 83.8971 42.3021 83.7276 42.2337C83.5582 42.1653 83.3768 42.1358 83.1957 42.1471C83.0157 42.1384 82.836 42.1707 82.6689 42.2418C82.5018 42.3128 82.3511 42.4209 82.2271 42.5588C81.9777 42.8564 81.848 43.2447 81.8655 43.6414V60.4964C81.87 60.7732 81.9518 61.0424 82.1006 61.2704C82.2494 61.4985 82.4587 61.6752 82.7022 61.7786C87.3069 62.6827 91.2457 57.6332 91.641 53.5771C92.0713 57.6307 97.8059 63.6778 101.024 61.7786Z" fill="#9593A2"/>
<path d="M5.26062 49.0026V21.2631C5.26062 21.2631 11.0383 21.088 14.379 23.1792C17.7198 25.2704 18.0519 30.804 18.4935 31.1264C18.4935 31.1264 19.0372 25.7469 22.79 23.1792C26.5427 20.6115 32.0784 21.2631 32.0784 21.2631V61.5927C32.0784 61.5927 27.1743 62.9523 24.4044 61.5927C23.2214 60.9807 22.266 59.9698 21.6897 58.7203C21.317 57.9149 21.0834 57.046 20.9998 56.1543C20.9998 56.1543 17.8339 55.7409 16.5851 53.3323C15.3364 50.9237 16.0669 49.2072 16.5851 47.4519C16.0981 46.743 14.2824 45.9853 13.8704 43.1053C13.4584 40.2253 15.7068 37.661 15.7068 37.661" stroke="#9593A2" stroke-width="3" stroke-miterlimit="10" stroke-linecap="round" stroke-linejoin="round"/>
<path d="M64.7108 34.5883V61.5128C64.7108 61.5128 59.9632 62.7403 56.6224 60.6491C53.2817 58.5579 52.1567 52.5671 51.7111 52.2413C51.7111 52.2413 50.6771 58.0839 46.9284 60.6491C43.1796 63.2142 37.8914 61.5128 37.8914 61.5128V21.2649C37.8914 21.2649 44.1513 21.2724 45.456 21.9981C48.7856 23.8502 48.6426 26.5602 48.9389 27.6142C48.9389 27.6142 52.3108 27.5764 53.7216 30.6719C55.1325 33.7674 54.2398 34.6287 53.7216 36.3873C55.1983 37.5445 56.2285 39.2254 56.6224 41.1203C57.0376 44.0003 54.5959 46.4342 54.5959 46.4342" stroke="#9593A2" stroke-width="3" stroke-miterlimit="10" stroke-linecap="round" stroke-linejoin="round"/>
</g>
</svg>
