<svg width="24" height="24" viewBox="0 0 24 24" fill="none" xmlns="http://www.w3.org/2000/svg">
<path d="M13.113 5.00936C12.8989 4.9688 12.6815 5.0625 12.5694 5.24364C12.4573 5.42478 12.4746 5.6545 12.6125 5.81805C13.4065 6.75919 13.8823 7.96032 13.8823 9.27036C13.8823 12.2873 11.3554 14.7329 8.23833 14.7329C7.34287 14.7329 6.49752 14.5315 5.74665 14.1733C5.55081 14.0798 5.31545 14.1154 5.15831 14.2621C5.00116 14.4088 4.95601 14.6352 5.04543 14.828C6.18568 17.2863 8.73766 19 11.7043 19C15.7336 19 19 15.8386 19 11.9389C19 8.50516 16.4682 5.64487 13.113 5.00936Z" fill="#02010F"/>
</svg>
