<svg width="30" height="31" viewBox="0 0 30 31" fill="none" xmlns="http://www.w3.org/2000/svg">
<path fill-rule="evenodd" clip-rule="evenodd" d="M19.1479 0.249846L29.7186 10.8468C29.8975 11.005 30 11.2326 30 11.4717C30 11.7107 29.8975 11.9383 29.7186 12.0965L25.2311 16.5952C25.075 16.7529 24.8626 16.8416 24.641 16.8416C24.4195 16.8416 24.207 16.7529 24.051 16.5952L23.0538 15.6121L19.4471 24.6596C19.0524 25.6539 18.2053 26.3977 17.1701 26.659L3.77382 29.9914C3.64134 30.0074 3.50741 30.0074 3.37492 29.9914C2.91596 30.0076 2.47078 29.8327 2.145 29.5082L0.482933 27.842C0.0717077 27.427 -0.0923111 26.8262 0.050796 26.2591L3.37492 12.8296C3.64909 11.7771 4.41843 10.925 5.43588 10.5469L14.4609 6.93128L13.4803 5.93156C13.323 5.77513 13.2345 5.5622 13.2345 5.34006C13.2345 5.11793 13.323 4.90499 13.4803 4.74857L17.9678 0.249846C18.1239 0.0921308 18.3363 0.00341797 18.5579 0.00341797C18.7795 0.00341797 18.9919 0.0921308 19.1479 0.249846ZM6.18381 25.9092L16.4221 23.3599L20.544 12.9796L17.0537 9.48055L6.69905 13.6294L4.12285 23.8431L8.87636 19.0778C9.07636 18.8796 9.18991 18.61 9.19215 18.328C9.19215 16.9477 10.3083 15.8287 11.6852 15.8287C13.0621 15.8287 14.1783 16.9477 14.1783 18.328C14.1783 19.7084 13.0621 20.8273 11.6852 20.8273C11.404 20.8296 11.1351 20.9434 10.9373 21.1439L6.18381 25.9092Z" fill="#02010F"/>
</svg>
