<svg width="31" height="35" viewBox="0 0 31 35" fill="none" xmlns="http://www.w3.org/2000/svg">
<path d="M3.66665 18.6667C3.66665 10.1867 8.50498 2.94003 15.3333 0.0300293C22.1616 2.94003 27 10.1867 27 18.6667C27 20.0384 26.8733 21.3767 26.6333 22.6717L29.8666 25.725C30.0003 25.8515 30.0883 26.0188 30.117 26.2006C30.1456 26.3824 30.1133 26.5685 30.025 26.73L25.8666 34.355C25.8046 34.4689 25.7169 34.5667 25.6105 34.6407C25.504 34.7147 25.3817 34.7628 25.2534 34.7812C25.1251 34.7997 24.9942 34.7879 24.8713 34.7469C24.7483 34.7059 24.6366 34.6368 24.545 34.545L20.8216 30.8217C20.5092 30.5091 20.0853 30.3335 19.6433 30.3334H11.0233C10.5813 30.3335 10.1575 30.5091 9.84498 30.8217L6.12165 34.545C6.03007 34.6368 5.91835 34.7059 5.79536 34.7469C5.67238 34.7879 5.54152 34.7997 5.4132 34.7812C5.28488 34.7628 5.16263 34.7147 5.05617 34.6407C4.94972 34.5667 4.862 34.4689 4.79998 34.355L0.641646 26.73C0.553352 26.5685 0.521001 26.3824 0.549644 26.2006C0.578287 26.0188 0.666311 25.8515 0.799979 25.725L4.03331 22.6717C3.79498 21.3767 3.66665 20.0384 3.66665 18.6667ZM6.12665 29.8267L7.48831 28.465C8.42578 27.5273 9.69734 27.0003 11.0233 27H19.6433C20.9693 27.0003 22.2409 27.5273 23.1783 28.465L24.54 29.8267L26.1766 26.8267L24.3433 25.0934C23.9381 24.7107 23.6353 24.2325 23.4627 23.7026C23.29 23.1727 23.253 22.608 23.355 22.06C23.5616 20.9534 23.6666 19.8184 23.6666 18.6667C23.6666 12.2167 20.3416 6.50003 15.3333 3.73336C10.325 6.50003 6.99998 12.2167 6.99998 18.6667C6.99998 19.8184 7.10498 20.9534 7.31165 22.0617C7.41363 22.6096 7.37659 23.1744 7.20394 23.7043C7.03128 24.2342 6.7285 24.7124 6.32331 25.095L4.48998 26.8267L6.12665 29.8267ZM15.3333 18.6667C14.4493 18.6667 13.6014 18.3155 12.9763 17.6904C12.3512 17.0653 12 16.2174 12 15.3334C12 14.4493 12.3512 13.6015 12.9763 12.9763C13.6014 12.3512 14.4493 12 15.3333 12C16.2174 12 17.0652 12.3512 17.6903 12.9763C18.3155 13.6015 18.6666 14.4493 18.6666 15.3334C18.6666 16.2174 18.3155 17.0653 17.6903 17.6904C17.0652 18.3155 16.2174 18.6667 15.3333 18.6667Z" fill="#09121F"/>
</svg>
