<svg width="20" height="22" viewBox="0 0 20 22" fill="none" xmlns="http://www.w3.org/2000/svg">
<path d="M11 1.05C16.053 1.551 20 5.815 20 11V12H11V18C11 18.5304 11.2107 19.0391 11.5858 19.4142C11.9609 19.7893 12.4696 20 13 20C13.5304 20 14.0391 19.7893 14.4142 19.4142C14.7893 19.0391 15 18.5304 15 18V17H17V18C17 19.0609 16.5786 20.0783 15.8284 20.8284C15.0783 21.5786 14.0609 22 13 22C11.9391 22 10.9217 21.5786 10.1716 20.8284C9.42143 20.0783 9 19.0609 9 18V12H0V11C0 5.815 3.947 1.551 9 1.05V1C9 0.734784 9.10536 0.48043 9.29289 0.292893C9.48043 0.105357 9.73478 0 10 0C10.2652 0 10.5196 0.105357 10.7071 0.292893C10.8946 0.48043 11 0.734784 11 1V1.05Z" fill="#9A99A2"/>
</svg>
